<svg id="Layer_1" data-name="Layer 1" xmlns="http://www.w3.org/2000/svg" viewBox="0 0 50 50"><defs><style>.cls-1{fill:#fff;}.cls-2{fill:none;stroke:#fff;stroke-miterlimit:10;stroke-width:2px;}</style></defs><title>dribbble</title><path class="cls-1" d="M25,15.28A9.72,9.72,0,1,0,34.72,25,9.73,9.73,0,0,0,25,15.28Zm6.43,4.48a8.32,8.32,0,0,1,1.87,5.17,19.7,19.7,0,0,0-5.78-.26c-.23-.55-.44-1-.73-1.63a11.14,11.14,0,0,0,4.64-3.28Zm-.93-1a9.35,9.35,0,0,1-4.35,3,44.26,44.26,0,0,0-3.1-4.86A8.29,8.29,0,0,1,30.5,18.8Zm-9-1.3a54.32,54.32,0,0,1,3.08,4.8,30.79,30.79,0,0,1-7.68,1A8.34,8.34,0,0,1,21.47,17.5ZM16.7,25v-.25a30.46,30.46,0,0,0,8.53-1.18c.24.46.47.93.68,1.41a12.87,12.87,0,0,0-7.08,5.57A8.27,8.27,0,0,1,16.7,25Zm3.2,6.55a11.68,11.68,0,0,1,6.57-5.2,33.79,33.79,0,0,1,1.77,6.3A8.3,8.3,0,0,1,19.9,31.56Zm9.74.34A36.66,36.66,0,0,0,28,26a12.16,12.16,0,0,1,5.17.35A8.34,8.34,0,0,1,29.64,31.9Z"/><circle class="cls-2" cx="25" cy="25" r="24"/></svg>