<svg id="Layer_1" data-name="Layer 1" xmlns="http://www.w3.org/2000/svg" viewBox="0 0 50 50"><defs><style>.cls-1{fill:#fff;}.cls-2{fill:none;stroke:#fff;stroke-miterlimit:10;stroke-width:2px;}</style></defs><title>google-plus</title><path class="cls-1" d="M27.8,23.84a7.54,7.54,0,0,1,.13,1.35c0,4.64-3.12,7.93-7.81,7.93a8.12,8.12,0,0,1,0-16.24A7.77,7.77,0,0,1,25.57,19l-2.21,2.12a4.55,4.55,0,0,0-3.24-1.25,5.13,5.13,0,0,0,0,10.26,4.4,4.4,0,0,0,4.62-3.5H20.12V23.84Zm7.84.27V21.75H33.27v2.36H30.91v2.37h2.36v2.36h2.37V26.48H38V24.11Z"/><circle class="cls-2" cx="25" cy="25" r="24"/></svg>