<?xml version="1.0" encoding="utf-8"?>
<!-- Generator: Adobe Illustrator 23.0.3, SVG Export Plug-In . SVG Version: 6.00 Build 0)  -->
<svg version="1.1" id="Layer_1" xmlns="http://www.w3.org/2000/svg" xmlns:xlink="http://www.w3.org/1999/xlink" x="0px" y="0px"
	 viewBox="0 0 512 512" style="enable-background:new 0 0 512 512;" xml:space="preserve">
<path d="M414.7,350c-17.7-0.7-24.3,24.3-24.3,24.3s23.6-18.3,23.6,6.5s-24.9,31.5-39.3,31.5c-32.5,1.3-32.5-62.9-93-62.9
	c-12.7-0.8-22.4,9.3-27.7,16.5c-5.3-7.3-15-17.4-27.7-16.5c-60.6,0-60.6,64.2-93,62.9c-14.4,0-39.3-6.6-39.3-31.5s23.6-6.5,23.6-6.5
	s-6.6-24.9-24.3-24.3c-16.1,3.4-22.9,16.4-22.9,30.8S89.9,462,169.8,462c51.2,0,74.1-20.9,84.1-36c10,15.1,32.9,36,84.1,36
	c79.9,0,99.6-66.8,99.6-81.3S430.8,353.4,414.7,350z"/>
<path d="M438.2,246.1v-33.8c0-91-71.9-165.1-161.9-168.9c-6.9-9-14.5-14-22.6-14c-8.1,0-15.8,5-22.7,14
	c-90,3.8-161.9,77.9-161.9,168.9v33.9c-30.3,0.6-48.4,6-48.4,22.9c0,26,105.3,47.1,235.3,47.1s235.3-21.1,235.3-47.1
	C491.3,251.3,471.4,246.2,438.2,246.1z"/>
</svg>
