<svg id="Layer_1" data-name="Layer 1" xmlns="http://www.w3.org/2000/svg" viewBox="0 0 50 50"><defs><style>.cls-1{fill:#fff;}.cls-2{fill:none;stroke:#fff;stroke-miterlimit:10;stroke-width:2px;}</style></defs><title>twitter</title><path class="cls-1" d="M33.37,20.71c0,.19,0,.37,0,.56A12.28,12.28,0,0,1,14.47,31.61a8.94,8.94,0,0,0,1,.06,8.6,8.6,0,0,0,5.36-1.85,4.3,4.3,0,0,1-4-3,5.31,5.31,0,0,0,.81.07,4.75,4.75,0,0,0,1.14-.15,4.32,4.32,0,0,1-3.46-4.24v-.05a4.37,4.37,0,0,0,2,.55,4.31,4.31,0,0,1-1.34-5.77,12.23,12.23,0,0,0,8.9,4.51,4.62,4.62,0,0,1-.11-1,4.32,4.32,0,0,1,7.47-3,8.64,8.64,0,0,0,2.74-1A4.31,4.31,0,0,1,33,19.15a9.07,9.07,0,0,0,2.49-.67,9.34,9.34,0,0,1-2.16,2.23Z"/><circle class="cls-2" cx="25" cy="25" r="24"/></svg>