<svg id="Layer_1" data-name="Layer 1" xmlns="http://www.w3.org/2000/svg" viewBox="0 0 900 650"><defs><style>.cls-1{fill:#df5b49;}.cls-2{fill:#5b2b0b;}.cls-3{fill:#fefefe;}.cls-4{fill:#eec74a;}.cls-5{fill:#fefdfc;}.cls-6{fill:#d05322;}.cls-7{fill:#3f1e07;}.cls-8{fill:#caa23c;}.cls-9{fill:#d5c9c1;}.cls-10{fill:#eeb4a2;}</style></defs><title>cake</title><path class="cls-1" d="M707,326.13c.67,141.55-116.58,259-261.75,256-139-3-253.7-118.6-250.33-262.49C198.16,180.83,313.73,66.45,457.49,69.94,595.8,73.29,707.64,187.19,707,326.13Z"/><path class="cls-2" d="M262,361.16c-10.07-3.7-12-13.17-3.93-20.05q79-67.53,158-135a4.79,4.79,0,0,0,.75-.66c7.8-10,18.74-11.26,30.37-11.38,51.54-.51,97.34,15.17,136.52,48.8,36.18,31.05,58.61,70.28,67.22,117.21,3,16.07,5,32.38,2.14,48.64-4.61,26-27.21,44.27-54,44.28q-144.43,0-288.87,0-22,0-44,0c-7.42,0-11.6-3.08-12.84-9.27-1.08-5.4,2-10,8.66-12.78,2.05-2.28,4.79-2,7.44-2q21.26,0,42.49,0,142.93,0,285.88,0c11.51,0,21-4.05,27.2-13.81,7-11.06,7.5-23.14,1.88-34.8-5.56-11.51-15.67-17.11-28.34-17.16-46.81-.18-93.62-.09-140.44-.06-6.46,0-6.46.09-7.32,9.25q.36,5.4.22,10.82c-.11,4.86-1.6,8.76-7,9.8a2.38,2.38,0,0,0-2.07,2.34,36.43,36.43,0,0,1-.2,6.85c.56,4.25.25,8.52.28,12.78a13.75,13.75,0,0,1-3.84,9.82c-5.48,4-8.81,4-14.34.05-3.94-3.69-4-8.48-3.91-13.37a90.33,90.33,0,0,1,.32-9.45,30.46,30.46,0,0,1,0-7.33,159.94,159.94,0,0,1,0-21.45c-.77-10.13-.77-10.13-10.77-10.13H355.71c-9.15,0-9.15,0-9.94,9a76,76,0,0,1,.1,13.91c-.3,3.45-2.17,6-5.77,6.53-3.3.52-5.88-.63-7-4.08-.31-5-.07-9.94-.15-14.9v-4.62c-.38,12.69.81,25.31.47,38-1.85,5.56-5.6,8.2-10.49,7.38s-7.86-4.81-7.82-10.39a13.14,13.14,0,0,0,0-2.94c-.43-2.14.07-4.26.07-6.39a176.55,176.55,0,0,1,0-22.42c-.72-9-.72-9-9.95-9-12.09,0-24.18,0-36.28,0C266.47,363.07,263.93,363.21,262,361.16Z"/><path class="cls-3" d="M440.05,401.86l0-7c1.77-2,4.13-1.87,6.48-1.89,17.81-.2,35.62-.06,53.43-.08q48.7,0,97.39,0c3,0,6,.11,8.89-.94,4.31-1.57,6.75-5.39,6.1-9.66-.7-4.61-3.17-6.78-8.17-7.11-2.16-.14-4.33-.07-6.49-.07q-69.92,0-139.84,0c-3,0-6.47.86-8.64-2.45C448.49,361,448.49,361,459.9,361q68.51,0,137,0c17.78,0,30.61,9.46,34.57,25.17,5.19,20.68-5.68,39.93-25.09,44.17a45,45,0,0,1-9.43.78q-165.74,0-331.47,0c-1.16,0-2.32-.14-3.48-.22,0-2.25.07-4.51.11-6.77,1.95-2.91,5-2.24,7.74-2.25,22.49-.08,45,0,67.47,0q39.22,0,78.46,0c3.21,0,6.33.13,9.05,2.12,4.06,2.73,8.12,2.62,12.18,0,3.06-2.14,6.55-2.09,10.07-2.09q75.15,0,150.3,0a49.1,49.1,0,0,0,7.48-.23,8.72,8.72,0,0,0-.18-17.34,53.37,53.37,0,0,0-7.48-.21q-74.16,0-148.31,0C445.79,404.07,442.44,404.76,440.05,401.86Z"/><path class="cls-4" d="M424.82,424c-19.13,0-38.26.14-57.39.16q-52.67,0-105.33,0a54.32,54.32,0,0,1,0-22.32c1.62-1.81,3.77-1.92,6-1.93q21.5-.07,43,0c2,0,4,.09,5.64,1.53,0,.83.14,1.65.11,2.48-.18,4.37,1.6,7.49,6,8.45,4.57,1,7.63-1.14,9.33-5.38,1-1.88-.65-4.47,1.6-6,1.6-1.14,3.47-1,5.29-1.05q38.18-.09,76.34,0c2.33,0,4.71-.08,6.44,1.94.06,4.31.28,8.62.12,12.92A12.86,12.86,0,0,0,424.82,424Z"/><path class="cls-4" d="M316.63,372.08v22.84c-1.42,2.09-3.62,2.13-5.8,2.15q-21.43.12-42.88,0c-2.22,0-4.34-.24-5.85-2.15V372.07c1.65-2.1,4-2.15,6.35-2.15q20.94-.07,41.88,0C312.65,369.94,315.06,369.8,316.63,372.08Z"/><path class="cls-3" d="M316.63,372.08H262.1L262,361.16c17.1-.05,34.2,0,51.3-.22,2.91,0,3.82.91,3.55,3.68C316.61,367.09,316.69,369.59,316.63,372.08Z"/><path class="cls-5" d="M262.1,394.92h54.53l.09,6.53c-12.9.94-25.81.19-38.71.4-5.3.08-10.6,0-15.9,0Q262.11,398.39,262.1,394.92Z"/><path class="cls-6" d="M461.11,321.93c-9.88-2.08-19-5.64-26.62-12.63-20.94-19.12-22.13-49.76-2.59-71.46,17.27-19.17,49.42-20.05,69.4-1.91a16.91,16.91,0,0,0,1.62,1.15c2.89.41,4.71,2.36,6.25,4.57C521,258.72,522.85,277,513.73,295.5c-9.28,18.81-25.25,28.11-46.28,28.46C465.17,324,462.71,324.2,461.11,321.93Z"/><path class="cls-4" d="M440.05,401.86l162.4.14c6.75,0,10.35,2.34,11.89,7.63,2.21,7.6-2.55,14.29-10.45,14.48-5.5.14-11,0-16.49,0H443c-2,0-4-.11-6-.17,3.1-3.38,2.88-7.54,2.85-11.69C439.82,408.8,440,405.33,440.05,401.86Z"/><path class="cls-4" d="M449.17,372.62q76.66,0,153.34,0c8,0,12.11,3.58,12.31,10.52.19,6.29-3.72,10.9-10,11.62a46.12,46.12,0,0,1-5,.07l-159.84,0c-.39-2.31-.64-4.11,3-3.58,4.13.6,6-1.92,6-5.89Q449.07,379,449.17,372.62Z"/><path class="cls-7" d="M461.11,321.93c15.88,1.18,30-2.76,41.56-14.21a49.79,49.79,0,0,0,2.47-68c-.76-.88-1.48-1.79-2.22-2.69,1.1-1.32,2.3-.8,3.6-.31,30.65,11.53,41.5,50.4,21.76,76.59-15.36,20.38-46.09,25.72-66.79,11.21C461.31,324.44,456.07,323.43,461.11,321.93Z"/><path class="cls-4" d="M333.91,388.05c1.5,3,3.92,4,7,3s3.23-3.78,3.22-6.55c0-4.15.11-8.3.18-12.46,1.42-2.08,3.61-2.13,5.79-2.13,19.91-.07,39.83-.23,59.74.11,4,.07,8.33,0,11.93,2.57l0,22.26c-1.61,2.14-3.95,2.2-6.3,2.2q-38.31.09-76.62,0c-2,0-4,.05-5.66-1.41C332.56,393.06,331.18,390.38,333.91,388.05Z"/><path class="cls-3" d="M421.8,372.62c-25.82-.95-51.64-.21-77.46-.55C343.68,361,343.68,361,354.67,361c20.48,0,40.95.23,61.42-.16,5.32-.1,6.64,1.58,5.93,6.31A47.38,47.38,0,0,0,421.8,372.62Z"/><path class="cls-5" d="M333.14,394.83l88.69.06q0,3.48,0,7l-88.6.07A8.13,8.13,0,0,1,333.14,394.83Z"/><path class="cls-8" d="M333.14,394.83a16.78,16.78,0,0,0,.07,7.09c-.32,1.7.31,3.6-1.07,5.08,0-13.49-.11-27-.1-40.46,0-1.78-.58-3.67.62-5.33,2,3.44-.09,7.32,1.19,10.83l.06,16C332.42,390.17,333.29,392.56,333.14,394.83Z"/><path class="cls-9" d="M333.85,372c-2.35-3.4-.46-7.26-1.19-10.83C335.56,364.55,333.33,368.44,333.85,372Z"/><path class="cls-10" d="M465.79,232c2.39,0,5-.09,5.19,3.2.24,3.6-2.39,3.65-5,3.88-16.77,1.46-28.73,12.69-31.23,29.2a14.58,14.58,0,0,1-.26,1.47c-.66,2.5.39,6.58-4,6-4.23-.54-3.48-4.27-3.12-7.18C429.91,248,446.89,231.93,465.79,232Z"/></svg>