<svg id="Layer_1" data-name="Layer 1" xmlns="http://www.w3.org/2000/svg" viewBox="0 0 900 650"><defs><style>.cls-1{fill:#ebefef;}.cls-2{fill:#838383;}.cls-3{fill:#b4b4b4;}.cls-4{fill:#d7d7d7;}.cls-5{fill:#e9eded;}.cls-6{fill:#e8ecec;}.cls-7{fill:#fefefe;}.cls-8{fill:#b13424;}.cls-9{fill:#e35136;}.cls-10{fill:#4f2825;}.cls-11{fill:#b33b29;}.cls-12{fill:#b33c2a;}.cls-13{fill:#85231c;}.cls-14{fill:#ea9383;}.cls-15{fill:#f6d6d0;}.cls-16{fill:#e77560;}.cls-17{fill:#9d2d1e;}.cls-18{fill:#949494;}.cls-19{fill:#ebeeee;}.cls-20{fill:#e9eceb;}.cls-21{fill:silver;}.cls-22{fill:#d0d0d0;}.cls-23{fill:#ee9382;}.cls-24{fill:#b23927;}.cls-25{fill:#bf8f8b;}.cls-26{fill:#6b1912;}.cls-27{fill:#d1afac;}.cls-28{fill:#b33a28;}.cls-29{fill:#b33928;}.cls-30{fill:#9c2c1f;}</style></defs><title>circus</title><path class="cls-1" d="M201.15,382c-5.87-23.47-7.41-47.38-5.88-71.38,3.57-56,23-105.94,59.26-148.89C296,112.59,348.5,82.18,412.2,73c84.3-12.1,157.87,11.75,218.92,71.07,42.33,41.11,66.66,91.88,74,150.59a257.51,257.51,0,0,1-3.21,82.94c-.29,1.46-.77,2.89-1.16,4.33a6,6,0,0,1-4.54,1.67c-5.8.15-11.61.12-17.42,0-3.91-.07-6.32-1.75-6.48-5.89-.12-3-1-5-4.65-5s-3.93,2.35-4,5c-.2,4.13-2.48,5.88-6.44,5.92-2.33,0-4.65.07-7,0-7.61-.09-8.1-.38-10.07-7.87-.59-2.23-1.76-3-3.86-2.92-1.93.05-3.07.81-3.42,2.83-.48,2.84,0,6.6-3.79,7.32-4.64.87-9.55,2-13.68-1.8-2.89-8.9-1.79-18.23-3.07-27.31-.13-4.36-.49-8.73.73-13,4.66-5.35,5.4-11.69,5.27-18.54-.31-15.72,0-31.45-.17-47.17.06-2.58-2-3.73-3.63-5q-44-35.32-87.93-70.79c-22.45-18-44.81-36.17-67.32-54.14a24.88,24.88,0,0,1-4.38-3,10.79,10.79,0,0,1-3.31-6.73c-.17-8.31-.08-16.62-.06-24.93,0-7.89,1.85-9.29,9.7-7.59,3.77,2.35,1,6.72,3,9.62a3.93,3.93,0,0,0,1.23.73c12.94.12,25.88-.08,38.78.07.14-.38,0-.61-.29-.88-7.53-7.06-7.53-7.06.13-15.72-7.92-1.14-15.94.95-23.71-1.26-2.09-1.66-2-4.07-2-6.34,0-3.42-1.59-4.64-4.84-4.59-4.94.06-9.88.09-14.82,0-2.64-.06-5.36-.07-6.87-2.86-.42-.72-.85-1.26-1.31,0-.15,16.74-.08,33.45,0,50.15,0,3.83-.59,7.22-3.63,9.82a8.83,8.83,0,0,1-1.68,1.72,13.3,13.3,0,0,0-4.67,3.4C396.59,182,353,217.5,309.13,252.66q-10.89,8.73-21.73,17.55c-1.63,1.33-3.69,2.44-3.67,5-.17,17.64,0,35.25-.06,52.87a15.07,15.07,0,0,0,3.5,10.12,10.42,10.42,0,0,1,2.46,4.29q.18,5.85-.11,11.69c-.7,7.6-.55,15.25-1.63,22.82-.25,1.8-.39,3.65-1.57,5.17-4.88,2.59-10,1.75-15.07.82-2.87-.52-3.65-3.16-3.93-5.76s-1-4.47-4.17-4.36-3.17,2.24-3.53,4.43c-.85,5.29-1.77,6.11-7.07,6.35-3,.14-6,.05-9,0-4.33-.06-6.9-2-7.26-6.49-.17-2.25-.5-4.28-3.6-4.32s-3.89,1.87-4.11,4.44c-.34,3.9-2.45,6.08-6.41,6.27-5.65.27-11.31.22-17,0A5.48,5.48,0,0,1,201.15,382Z"/><path class="cls-2" d="M645.94,492c-26.76,31.8-59.54,55.29-97.9,71.12-35.83,14.79-73.2,20.7-111.79,18.66a234.21,234.21,0,0,1-66.36-12.86,45.59,45.59,0,0,1-8.43-6.95c-18.7-18.24-37.61-36.25-55.9-54.9-2.91-3-6.53-5.17-9.28-8.33-1.29-1.48-3-2.71-2.82-5a2.28,2.28,0,0,1,1.59-1.47c4.5-.09,8.08,2.83,12.27,3.76,9.8,3.55,19.91,5.9,30.08,8.08,2.62.56,5.24.33,7.86.58,5.68,2.75,11.94,2.72,18,3.71,5.73.93,11.5,1.68,17.3,2.13,4.71-.18,9.3,1.08,14,1,27.32,2.35,54.69,1.65,82.06,1.65,10.27,0,20.49-1.31,30.76-1.68,4.79.09,9.49-1.27,14.3-1,11.88-1.34,23.7-3.14,35.51-5,12.51-2.5,25-5.2,37-9.41,7.38-2.39,14.49-5.33,20.72-10.09,4.23-2.2,4.92-7.15,8-10.29a2.76,2.76,0,0,1,2.34.46C632.24,481.31,639.48,486.14,645.94,492Z"/><path class="cls-3" d="M294,494q19.88,19.59,39.77,39.19c10.69,10.47,21.48,20.84,32.2,31.28,1.42,1.38,2.65,2.95,4,4.43-35.7-11.58-67-30.6-94.33-56.19a253,253,0,0,1-60.23-86c-.52-1.21-.86-2.49-1.28-3.73a4.85,4.85,0,0,1,3.62-1.38c21.07-.23,42.13-.43,63.19.12a5.52,5.52,0,0,1,1.43.39c2.83,2,2.33,5,2.08,7.7-1.33,14.7-2,29.45-3.19,44.16-.37,4.57,1.8,7.93,4.6,11.09a26,26,0,0,1,5.67,4.84A12.05,12.05,0,0,1,294,494Z"/><path class="cls-3" d="M645.94,492c-5.06-1.17-8.2-5.31-12.28-8-3.71-2.42-7.13-5.27-10.68-7.94-2.16-1.24-2.55-3.38-2.65-5.55-.67-14-1.82-28-2.92-42-.17-2.15-.13-4.33,1.56-6,5.95-1.84,12.17-1.41,18.16-1.17,14.72.58,29.43-.62,44.14.22,2.27.13,4.69-.41,6.59,1.44C678,448.47,663.73,471.31,645.94,492Z"/><path class="cls-4" d="M687.86,423l-68.72,0a.89.89,0,0,1-.29-.84c.07-.29.14-.44.22-.44,2.18-1.64,4.77-.94,7.19-1.28,1.13-.16,2.53-.18,2.61-1.71.11-1.86-1.48-1.82-2.77-2.09-2.8-.6-5.49,1.14-8.3.34-2.44-4.17-1.93-8.45-.49-12.75,2.09-2.24,4.9-1.71,7.49-1.82s4.49-.77,4.45-4-2.13-3.63-4.66-3.75c-2.77-.13-5.71.49-8.13-1.58-1.61-4-3.63-8-.25-12.08,4.13,1.93,8.51.93,12.76.82,2.69-.07,1.9-2.67,2-4.34.22-6.16,3-8.09,9.05-6.42,2.34.65,1.91,2.37,2,3.95.35,7,.34,7,7.35,7h4c7.85,0,7.94,0,8.62-7.83.2-2.35,1.12-3.27,3.38-3.15a30.58,30.58,0,0,0,4.49,0c3.37-.37,4.22,1.22,4.22,4.36,0,6.63.13,6.64,6.79,6.64h20a41.51,41.51,0,0,1-2.81,11c-2,1.91-4.6,1.63-7.06,1.68-3.48.07-7,0-10.44.05-2.5,0-4.64.39-4.67,3.71s2,3.79,4.53,3.83c3,.06,6,0,9,.08,2,.08,4-.1,5.52,1.63a42.07,42.07,0,0,1-3.87,11c-1.54,1.55-3.55,1.54-5.52,1.6s-4-.08-5.92.12c-1.25.12-3-.06-3.1,1.69s1.68,1.68,2.93,1.85,2.63,0,3.94.14c1.78.14,3.67,0,4.94,1.68A.87.87,0,0,1,687.86,423Z"/><path class="cls-4" d="M282.78,423l-68.73,0a.85.85,0,0,1-.31-.89c2.06-2.32,4.89-1.38,7.42-1.77,1.36-.21,3.48.21,3.39-1.89s-2.18-1.57-3.56-1.75c-3.35-.45-7,.87-10-1.67a42.07,42.07,0,0,1-3.87-11c2.82-2.53,6.29-1.4,9.51-1.65,1.81-.14,3.64,0,5.47-.17,2.35-.19,3-1.62,3-3.72s-.84-3.45-3.15-3.61c-3.81-.26-7.62-.05-11.44-.15-2.31-.06-4.69.11-6.56-1.68a41.24,41.24,0,0,1-2.82-11c6.66,0,13.33-.18,20,.08,4.2.16,6.27-1.05,5.9-5.6-.15-1.76-1.17-4.47,1.5-5.16s5.81-1,8.34.2c2,1,1.12,3.64,1,5.53-.17,3.64,1.24,5.27,4.94,5,2.16-.17,4.33,0,6.5,0,7.75,0,7.93,0,8.55-7.89.3-3.79,2.8-3.24,5-3s5.6-1.73,6.14,2.8c1,8.11,1.07,8.1,9.22,8.1l7.49,0c3.24,3.75,1.54,7.41-.19,11.07-3,2.43-6.62,1.36-10,1.62-2.38.18-4.71.16-4.78,3.54s2.06,4,4.81,4.16c3,.19,6.34-.7,9,1.72,1.64,4.65,2,9.27-.38,13.8-3.37,0-6.49-2.12-10-1.25-1.24.31-2.94.15-3,1.95s1.71,1.67,3,1.83c2.89.38,6-.57,8.66,1.25A1,1,0,0,1,282.78,423Z"/><path class="cls-1" d="M694.77,404c-5.64,0-11.29-.19-16.93.07-4.7.21-3.83-2.92-3.9-5.64-.08-2.9-.46-5.68,4.08-5.48,6.63.29,13.28.07,19.92.07A42.51,42.51,0,0,1,694.77,404Z"/><path class="cls-1" d="M204,393c6.3,0,12.61.22,18.9-.07,4.55-.21,4.16,2.59,4.07,5.48-.07,2.71.82,5.86-3.89,5.64-5.29-.26-10.61-.07-15.92-.07A42.49,42.49,0,0,1,204,393Z"/><path class="cls-5" d="M688.17,422.09c-3,0-5.95,0-8.92-.1-2.53-.06-5.45.78-5.38-3.62.07-4.08,2.77-3.32,5.14-3.35,4,0,7.93,0,11.89,0A18.68,18.68,0,0,1,688.17,422.09Z"/><path class="cls-6" d="M211,415c3.63,0,7.26,0,10.89,0,2.36,0,5.06-.73,5.12,3.35.08,4.39-2.82,3.56-5.36,3.62s-5.27.07-7.91.1A18.7,18.7,0,0,1,211,415Z"/><path class="cls-7" d="M444.24,143a.94.94,0,0,0,.66-.55,2.23,2.23,0,0,1,2.5-1,2,2,0,0,1,1.05,1,3.89,3.89,0,0,1-1,3.44c-5.07,5.34-8.64,11.79-12.79,17.79-24.23,35-48.69,69.85-72.77,105-1.51,2.2-3,4.41-5.64,5.5a10.18,10.18,0,0,1-1.62.43c-9.82.54-19.65.2-29.47.21a9.38,9.38,0,0,1-4.36-.86c-2.11-1.47-.86-2.91.2-4.17,1.93-2.29,3.64-4.77,5.77-6.89,12.86-12.81,25.35-26,38.07-38.93,16.68-17,33-34.32,49.79-51.23,8.55-8.61,16.71-17.63,25.61-25.9A41.63,41.63,0,0,1,444.24,143Z"/><path class="cls-7" d="M456.41,142.05l3,1.89c18.35,17.87,35.86,36.57,53.69,54.95,19.11,19.7,38,39.63,57.24,59.2,3.49,3.55,6.61,7.48,10,11.1,1.35,1.43,3.54,3.37,0,5-11,1-22,.53-33,.31-.53-.09-1.06-.23-1.57-.37-2.62-1-4.18-3.2-5.68-5.41-26.69-39.17-54-77.9-80.71-117.07-1.22-1.8-2.71-3.36-3.95-5.13a4.91,4.91,0,0,1-.52-1.43,4.19,4.19,0,0,1,.25-2.27A1.3,1.3,0,0,1,456.41,142.05Z"/><path class="cls-8" d="M288.9,343c-6.34-5.74-7.49-13-7.24-21.22.46-14.43.12-28.89.15-43.34,0-1.81.26-3.61.4-5.42a19.29,19.29,0,0,1,9.07-1.87c7.08.08,14.16,0,21.23.06,2.29,0,4.65-.1,6.58,1.52,1.6,1.95,1.68,4.3,1.67,6.64,0,16.49.18,33-.08,49.46a19.2,19.2,0,0,1-2.33,7.71c-4.75,9.27-13.17,10.29-22.23,9.84C293.43,345.85,290.62,345.56,288.9,343Z"/><path class="cls-9" d="M319,273.06,282.21,273q27.07-22,54.14-44,49.48-40,99-79.86c1.42-1.15,2.91-2.2,4.37-3.3,1.06-.23,1.46.2,1.25,1.24L368.52,222,320,272.23A1.84,1.84,0,0,1,319,273.06Z"/><path class="cls-8" d="M619.69,273c1,9.92.25,19.87.4,29.8.13,8.62,0,17.25,0,25.88,0,5.14-1.86,9.31-6.12,12.32-1.7,3.53-5,4.5-8.41,5.26-9,.51-17.39-.4-21.94-9.84-1-2.46-2.28-4.84-2.39-7.59-.28-16.61-.11-33.22-.11-49.82,0-2.18.18-4.33,1.56-6.17.39-.3.72-.79,1.22-.83C595.88,271.05,607.86,269.61,619.69,273Z"/><path class="cls-9" d="M619.69,273l-36.84.06A.54.54,0,0,1,582,273c-10.65-12.35-22.38-23.66-33.67-35.39Q505.73,193.3,463,149.17c-1.46-1.51-3.18-2.95-3.59-5.23,12.26,9.73,24.56,19.4,36.76,29.21q60.93,49,121.81,98.12A20,20,0,0,1,619.69,273Z"/><path class="cls-9" d="M283,418.13c1.26-4.65.86-9.41.91-14.13-1.12-3.78-1.25-7.47.88-11,.4-3.68,1.22-7.33.87-11.06Q286.87,368,288,354a7.89,7.89,0,0,1,8,4c1.33,7-.25,13.93-.7,20.86q-1.68,26.14-3.6,52.28c-1.13,15.76-2.4,31.52-3.31,47.3-.16,2.9-.13,6.08-2.55,8.39-4.71-3.75-6.94-8.08-6.31-14.63,1.57-16.38,2.24-32.85,3.26-49.28a1.54,1.54,0,0,0,.05-1C281.89,420.64,281.75,419.34,283,418.13Z"/><path class="cls-9" d="M619.12,422a1.33,1.33,0,0,0,0,1c1,17.72,2,35.45,3.84,53.12-1,4.41-3,8.15-6.86,10.7-3.08-4-2.49-8.86-2.81-13.38-1.63-22.71-3.16-45.42-4.83-68.13-1.05-14.25-1.89-28.52-3.08-42.77a10.27,10.27,0,0,1,.5-4.43,7.84,7.84,0,0,1,8-4q1.15,13.47,2.3,27,.45,6,.91,12a12.7,12.7,0,0,1,.9,11c-.07,4.4-.25,8.8.86,13.11C620.48,418.64,620.31,420.28,619.12,422Z"/><path class="cls-9" d="M452.75,112.74q0,12.14.06,24.27a1.33,1.33,0,0,1-1.63-.71,10.43,10.43,0,0,1-.67-4.88c0-15.44-.06-30.88,0-46.32,0-2-.59-4.45,1.89-5.74.17,2.59.88,4.07,4.15,3.9,6.46-.35,13,.09,19.44-.18,3.62-.15,4.61,1.22,4.43,4.6-.13,2.43-.63,5,.49,7.36,3.15,6.09,1.46,9.32-5.13,9.36-4.61,0-9.27.59-13.85-.49"/><path class="cls-8" d="M462,103.91c3.4-1.88,7.09-.76,10.62-.84,9.71-.24,8.11.83,8.36-8h28.42c-2.87,2.45-4.84,4.11-6.79,5.8-4.85,4.16-4.83,4.15-.19,8.23,2,1.72,3.87,3.51,6.45,5.87H463.93c-.29-2.83,2.18-3.41,3.83-4.58,2.29-1.62,4.68-3.1,7.08-4.69-1.34-.46-2.65,0-3.92-.2-4.35-.54-7.13.62-6.62,5.76a5,5,0,0,1-1.38,3.62C461,111.35,462.64,107.52,462,103.91Z"/><path class="cls-10" d="M452.42,79.36c-.83,19.13-.07,38.27,0,57.4a1.86,1.86,0,0,1-2.64.23c-.57-19.6-.34-39.2-.12-58.8C451.14,77.21,452,77.86,452.42,79.36Z"/><path class="cls-11" d="M613.91,354a16.7,16.7,0,0,1-7,3l-.66-.57c-1.77-3.78-2.92-7.57-.33-11.48,2.81-1.1,5.67-2.1,8.08-4C613,345.34,614.5,349.69,613.91,354Z"/><path class="cls-12" d="M295.06,357.09a16.75,16.75,0,0,1-7-3.07c-.07-3.71-.2-7.42.87-11l7.09,2c2.37,3.9,2.07,7.75-.2,11.58Z"/><path class="cls-13" d="M462.92,114.85c.1-10.9.1-10.91,11-10.84,1.39,0,2.79.14,5.28.26l-15.24,10.67Z"/><path class="cls-14" d="M449.64,78.19q.12,29.53.25,59.06c1.28,2.31.24,3.64-1.91,4.5l-3.08.65c4.67-4.12,4.08-9.58,4-15-.11-14.64-.07-29.29,0-43.93C448.94,81.7,448.27,79.79,449.64,78.19Z"/><path class="cls-15" d="M448,141.75c.7-1.47,1.87-2.75,1.91-4.5l2.51-.48.41.23,3.6,5.05a4.08,4.08,0,0,1-.42.9c-.95.77-1.84,0-2.76-.11a2,2,0,0,0-1.05.3,3.42,3.42,0,0,1-2.05,1.15c-1.14-.28-1.28-1.6-2.22-2.09Z"/><path class="cls-16" d="M441,147.09l-1.25-1.24c1.15-1.49,2.34-2.91,4.47-2.9A7.28,7.28,0,0,1,441,147.09Z"/><path class="cls-17" d="M508,513c-30,3.21-60.11,2.45-90.18,1.76-7.9-.19-16-.07-23.82-1.76-1.67-1.74-1.64-3.89-1.54-6.08,1.16-23.72,3.35-47.38,3.83-71.13,0-2.21-.32-4.82,2.51-5.95,1.9,7.24,7.17,5.9,12.8,5.78,20.21-.42,40.4-2.69,60.66-.56,8.07.85,16.27-.26,24.34,1.07,5.09.84,4.19-4.22,6.38-6.22,2.92.67,2.69,3.19,2.7,5.2,0,15.16,1.46,30.26,2.24,45.38.44,8.47.57,17,1.51,25.42C509.66,508.37,509.9,510.89,508,513Z"/><path class="cls-9" d="M595.16,497c-12,5.15-24.81,7.44-37.57,9.81a8.66,8.66,0,0,1-2.26-5.92c-1-20.94-2.84-41.81-4.25-62.71-1.43-21.23-3-42.45-4.48-63.68-.54-8.07-2.56-16.17-.71-24.32,1.28-2.52,2.8-1.19,3.87,0,4.92,5.57,11.38,5.72,18,5.16,6-.52,10.22-3.72,12.41-9.39,1.21-3.14,2.64-4.31,4.91-.81,1.26,2,.87,4.26,1.28,6.41,2,19.86,2.88,39.8,4.45,59.68,1.69,21.38,2.8,42.8,4.65,64.17.45,5.3.44,10.63,1.13,15.92A7.08,7.08,0,0,1,595.16,497Z"/><path class="cls-9" d="M344.46,505.2c-.53.83-.91,1.71-2.26,1.41-11.92-2.68-24.05-4.58-35.36-9.54a6.7,6.7,0,0,1-1.38-5.16c1.62-20.23,2.91-40.49,4.4-60.73,1.21-16.43,2.25-32.88,3.38-49.31.67-9.79,1.27-19.6,2.28-29.36.82-2.48-.56-5.4,1.45-7.66,1.71-1.92,3-2.73,4.58.43,6.05,11.88,19.72,14.34,29.85,5.65,1.22-1.05,2.52-3.88,4.6-.76,1.94,8.68-.21,17.27-.74,25.85q-1.53,25.16-3.48,50.3c-1.34,17.42-2.52,34.86-3.7,52.29-.46,6.81-1.12,13.6-1.4,20.42C346.58,501.26,347.07,503.82,344.46,505.2Z"/><path class="cls-7" d="M546.81,349c1.14,18.27,2.21,36.53,3.46,54.79,1.82,26.56,3.78,53.11,5.68,79.66.56,7.8,1.09,15.6,1.64,23.4a332.82,332.82,0,0,1-35.42,5c-3.24-4.14-2.51-9.21-2.81-13.86-1.81-27.82-4-55.61-5.93-83.43-1.3-18.87-2.58-37.75-4-56.62a8.72,8.72,0,0,1,.48-3.92c1.5-2.72,3.65-1.61,5.61-.8a29.43,29.43,0,0,0,8.07,2.31c8.67,1,15.28-1.9,19.55-9.68a2.9,2.9,0,0,1,2.91-1C547.32,346,548.32,347.27,546.81,349Z"/><path class="cls-7" d="M344.46,505.2c1.44-19.56,2.93-39.13,4.3-58.7q3.32-47.28,6.48-94.57a22.66,22.66,0,0,0-.15-3c-1.74-1.92-.93-3.54.59-5.08,2.15-.51,2.87,1.14,3.77,2.51,6.22,9.42,15.61,12,25.94,7.26,2-.89,4-3.63,6.52-.69,1.46,7.32-.27,14.55-.7,21.79-1,16.74-2.36,33.45-3.51,50.18-1.13,16.56-2.27,33.12-3.55,49.68-.81,10.43-1.19,20.89-2.36,31.29-.24,2.13-.14,4.38-2.05,5.93-10.5-1.38-21-2.71-31.48-4.17C346.74,507.46,344.78,507.46,344.46,505.2Z"/><path class="cls-7" d="M317.1,350.9q-4.47,62.89-8.94,125.78c-.48,6.8-.88,13.6-1.32,20.39-4.22-.49-7.71-3.05-11.69-4.2a8.68,8.68,0,0,1-4.14-1.78l-5.18-4.22q4.62-64.89,9.23-129.78l.17.06c1.57-2,3.83-1.7,5.9-1.63a16.09,16.09,0,0,0,11.78-4C314,350.63,315.33,348.55,317.1,350.9Z"/><path class="cls-7" d="M595.16,497q-5-70.53-10-141c-.14-2-.09-4-.13-6,.16,0,.38-.17.47-.11a36.17,36.17,0,0,0,20.15,6.31c.44,0,.8.56,1.13.92l.15-.05q3.26,46.72,6.51,93.44c.85,12.09,1.79,24.18,2.69,36.27A55.91,55.91,0,0,1,595.16,497Z"/><path class="cls-9" d="M511.09,353.05q3.18,45.54,6.36,91.09,2.37,33.86,4.72,67.7c-4.76.18-9.41,1.6-14.22,1.12-1.29-21-2.62-41.91-3.83-62.87-.26-4.47,0-9-.17-13.44-.07-2.26.61-4.66-.86-6.76-1.53-1.11-1.68-2.8-1.8-4.45-.84-12.42-1.53-24.85-2.16-37.28-.49-9.61-1.22-19.2-1.54-28.82.65-6.27,6.41-9.75,8.46-15.32.61-1.68,2.11-1.29,3,.15,1.11,1.82,1.66,3.92,2.68,5.8A3.48,3.48,0,0,1,511.09,353.05Z"/><path class="cls-9" d="M379.74,511.84q5.46-77.18,10.92-154.36c.13-1.82.15-3.65.22-5.48a2.49,2.49,0,0,1-.52-2.21c1.54-2.17,1.13-6.34,4.22-6.52,2.45-.15,2.78,3.63,4.08,5.62,1.69,2.6,4.66,4.22,5.56,7.41.78,7.33-.32,14.62-.79,21.87-1,15.08-1.31,30.2-2.71,45.25-.21,2.28.2,4.74-1.9,6.45-1.11,1.26-.86,2.82-.84,4.28.17,22.71-3,45.25-3.2,67.94,0,3.6-1.06,7.2-.83,10.87C389.15,513.45,384.49,512,379.74,511.84Z"/><path class="cls-18" d="M291,491.09a5.46,5.46,0,0,1,4.14,1.78L294,494A6,6,0,0,1,291,491.09Z"/><path class="cls-1" d="M652,393a27.67,27.67,0,0,0,4,0c4.7-.69,6.41,1.07,6.16,5.95-.19,3.7-.88,5.52-5,5.14a84.49,84.49,0,0,0-10.91-.05c-4.72.17-4.12-3.11-4.23-6.1S642,392.54,646,393A59,59,0,0,0,652,393Z"/><path class="cls-19" d="M618,404a38.41,38.41,0,0,1-.9-11c3.3,0,6.63.17,9.92-.07,4.67-.35,3.87,2.84,3.91,5.58s.59,5.88-4,5.49C624,403.79,621,404,618,404Z"/><path class="cls-5" d="M652.19,422c-2.31,0-4.63,0-6.94,0-1.88,0-3.25-.4-3.27-2.68s.31-4.16,3-4.23c4.79-.12,9.59,0,14.38,0,2.32,0,2.6,1.49,2.62,3.32,0,2-.23,3.68-2.83,3.63C656.82,421.94,654.51,422,652.19,422Z"/><path class="cls-5" d="M619.12,422l-.24-4.88c2.69-4.31,6.81-1.37,10.22-1.89,1.64-.26,1.75,1.52,1.85,2.88.2,2.55-.48,4.11-3.47,3.94C624.7,421.86,621.91,422,619.12,422Z"/><path class="cls-1" d="M247.72,404h-3c-6.69,0-8.22-2.09-6.74-8.74.44-2,1.64-2.24,3.23-2.24h10c6.68,0,8.21,2.08,6.74,8.74-.44,2-1.65,2.23-3.23,2.24Z"/><path class="cls-19" d="M284.83,393c.09,3.69.23,7.38-.88,11-3.16,0-6.33,0-9.49,0-1.76,0-4,.62-4.92-1.45a12.88,12.88,0,0,1-.17-8.32c.41-1.58,2.19-1.17,3.47-1.18C276.84,393,280.84,393,284.83,393Z"/><path class="cls-5" d="M248.11,422c-2.33,0-4.67-.07-7,0s-3.17-1.08-3.19-3.35c0-2.43.68-3.74,3.38-3.67,4.5.12,9,.09,13.49,0,2.41-.05,3.16,1.09,3.19,3.35,0,2.44-.68,3.81-3.39,3.66C252.45,421.89,250.28,422,248.11,422Z"/><path class="cls-20" d="M283,418.13l-.21,3.85c-3.47,0-6.94,0-10.4,0-2.12,0-3.51-.49-3.46-3,0-2.28.67-3.92,3.27-4s5.28,0,7.92,0C282.43,414.92,282.93,416.31,283,418.13Z"/><path class="cls-7" d="M447.91,142.2c1.59-.32,1.84.84,2.14,1.94,1.77,1.8,1.35,4,1.05,6.14Q443,209,434.63,267.61c-.33,2.33-.75,4.64-2.88,6.14-2.64,1.33-5.5,1.11-8.3,1-9.08-.27-18.21.8-27.26-.62-3.63-2.14-1.64-5-.63-7.39,5.17-12.43,10.25-24.91,15.44-37.34,10.71-25.62,21.25-51.31,31.93-76.94a58.6,58.6,0,0,1,4-7.45C447.27,144.09,447.59,143.15,447.91,142.2Z"/><path class="cls-9" d="M446.94,145c.33,2-.78,3.53-1.47,5.18q-24.42,59-48.89,118c-.63,1.52-1.06,3.11-1.58,4.67,1.56,1.74,1.75,3.89,1.76,6.07q.09,22.68,0,45.35a9.08,9.08,0,0,1-1.23,5.26,1.39,1.39,0,0,1-1.71.47c-2-2.23-1.62-5-1.63-7.61-.06-13.65,0-27.3-.05-40.94,0-6.41-.31-6.65-6.84-6.71-7-.05-14,0-21,0-2.31,0-4.68.17-6.8-1.11l-.65-.7,65.89-94.68c6.94-10,13.81-20,20.78-29.95C444.43,147.06,444.88,145.17,446.94,145Z"/><path class="cls-21" d="M319,273.06l1-.83c4.15,1.62,8.46.61,12.69.72,7.75.21,15.52.12,23.28.15,1.9,1.89,1.47,4.32,1.47,6.61.05,13,0,26,0,39a21.09,21.09,0,0,0,.63,6.43,14.73,14.73,0,0,1,.06,6.2c-.41,1.64-1.34,3.07-1.84,4.67-4.52,8.44-12.75,12.06-23,10.12-8.78-1.65-13-6.45-14.26-16.19Z"/><path class="cls-22" d="M356.72,326c-1.24-1.62-.74-3.51-.75-5.28q-.06-23.81-.05-47.61a5.91,5.91,0,0,1,.94-.13,1.1,1.1,0,0,1,.54,0c1.41,2,1.39,4.39,1.4,6.72,0,13,.06,25.95,0,38.92C358.75,321.2,359.18,324,356.72,326Z"/><path class="cls-7" d="M451.82,141l1.35,0a24,24,0,0,0,2.84,4.15l-.06.49c6.49,12.74,11.3,26.19,16.76,39.37q16.8,40.5,33.39,81.1c1,2.53,3.37,5.41-.29,7.92-11.86,1-23.72,1.53-35.55-.3-2.16-1.44-2.65-3.73-3-6.07-5.3-38.27-10.69-76.54-15.81-114.85C451,149,450.51,145,451.82,141Z"/><path class="cls-9" d="M506.91,272.92c-6.45-16-12.83-32-19.36-47.92-10.3-25.16-20.72-50.28-31-75.46-.44-1.09-2.45-2.26-.61-3.83,2.07.75,2.82,2.74,3.93,4.34q41,59.23,82,118.49c1,1.5,2.14,2.95,3.21,4.43l-.65.69c-3.6,1.83-7.48,1-11.25,1.1-6,.14-11.95.16-17.92,0-4.1-.11-5.52,1.63-5.5,5.6q.11,20.91,0,41.81c0,2.62.32,5.35-1.44,7.66a1.24,1.24,0,0,1-1.74-.08c-1.62-2.16-1.41-4.7-1.42-7.16q-.06-21.08,0-42.15C505.13,277.81,505,275.11,506.91,272.92Z"/><path class="cls-21" d="M582,273a8.46,8.46,0,0,1,.88.11q0,28.44.08,56.88c-1,9.36-5.14,14.18-13.61,16-10.4,2.24-18.49-1.17-23.64-9.94-.52-1.59-1.42-3-1.84-4.66a14.77,14.77,0,0,1,0-6.21c1-3.44.6-7,.61-10.44,0-11.66,0-23.32,0-35,0-2.28-.42-4.72,1.48-6.61Z"/><path class="cls-22" d="M546,273.1q0,23.81-.06,47.61c0,1.77.5,3.66-.74,5.28-2.05-1.49-2-3.75-2-5.88-.12-14-.09-27.93,0-41.9a9,9,0,0,1,1.37-5.23,1.06,1.06,0,0,1,.53,0A6,6,0,0,1,546,273.1Z"/><path class="cls-23" d="M456,145.22c-2.51-.32-2.57-2.3-2.84-4.15L456,143C456,143.71,456,144.46,456,145.22Z"/><path class="cls-24" d="M319,329.89c4.1,12.55,12.12,17.28,24.55,14.54,5.33-1.18,9.37-4,11.58-9.11,4,2.53,2.67,5.68,1,8.86-.33,1.6-1.59,3-1,4.79-7.78,9-20.21,11.12-29.13,5.08a13.12,13.12,0,0,1-5.9-8.81c-.63-3.57-1.77,2-2.21-.25-2.77-2.74-.39-6-.89-9C317.84,334.05,319.16,332.21,319,329.89Z"/><path class="cls-25" d="M317,336c2.16,2.8.37,6,.89,9-1.93,1.76.54,4.08-.75,5.91-.29-.1-.79-.37-.85-.29-5.51,7-13.24,6.86-21,6.54q.38-6.06.76-12.13c3.63-.33,7.29.18,10.9-.87C311.42,342.82,315.08,340.57,317,336Z"/><path class="cls-24" d="M546.79,335.3c4.21,8.8,12,10.24,20.48,9.47,9-.82,13.64-6.51,15.66-14.83-.51,2.41,1.92,3.85,2,6.06-.41,3.33,1.94,6.85-.72,10l-2.17-1.18a14.07,14.07,0,0,1-11.76,11.73c-8.92,1.59-17.7,1.2-23.49-7.6-.32-1.3-.63-2.6-.94-3.9-1.48-1.36-1.25-3.21-1.42-4.95C544.69,338.25,543.78,335.82,546.79,335.3Z"/><path class="cls-25" d="M584.23,346c.28-3.34-1.35-6.81.72-10,2.88,6.54,8.56,8.37,15,8.88,2,.16,4,.1,6,.13l.84,12.1c-8.21.57-16.12.21-21.75-7.12C583.87,348.84,585.72,347.1,584.23,346Z"/><path class="cls-9" d="M451.82,141c2.46,18.62,4.86,37.25,7.39,55.86q4.86,35.83,9.9,71.64c.21,1.48.59,2.93.89,4.4a7.81,7.81,0,0,1,1.74,5.53q.15,16.08,0,32.17c0,1.81-.17,3.64-1.43,5.13-3.81-.2-2.95-3.34-3-5.41-.31-7.8-.06-15.62-.14-23.43-.15-13.82,1.54-11.95-12.36-12.11-4.82-.06-9.64.13-14.46-.05-4.05-.14-5.61,1.48-5.59,5.54.08,13.63.06,27.26,0,40.89,0,2.32.15,4.68-1,6.82-.44.79-1,1.27-2,.88-1.7-1.93-1.56-4.32-1.57-6.62q-.08-21.15,0-42.3c0-2.49,0-5,1.79-7.06,2.66-18.25,5.36-36.48,8-54.73q4.94-34.55,9.73-69.09c.23-1.64.31-3.31.45-5Z"/><path class="cls-26" d="M398.82,429.87q1.94-33.93,3.87-67.86c.13-2.31.07-4.63.09-6.95-1.68-4.09-2.87-8.14.89-11.81,1.76-.79,3.56-.35,5.36-.11,9,1.2,16.45-.77,20.81-9.58a4.18,4.18,0,0,1,1.74-1.72c1.74-.42,2.41.9,3,2.05,6.32,13.39,27.34,13.17,33.22-.88a3.58,3.58,0,0,1,.95-1.14,1.89,1.89,0,0,1,1.49-.13,4.54,4.54,0,0,1,2,2.1c4.3,8.61,11.7,10.43,20.43,9.35,1.63-.2,3.24-.64,4.91-.18,3.67,2.06,3.08,5.62,2.65,8.76a52,52,0,0,1-1.13,6.26q2,35.93,4,71.86c-.42,8.88-1.1,9.41-9.9,7.7a17.57,17.57,0,0,0-3.43-.52c-17.44.08-34.89-2.27-52.27-.81-10.25.87-20.55-.14-30.76,1.58C399.31,439.09,399.24,438.69,398.82,429.87Z"/><path class="cls-25" d="M546.79,335.3c-1.56,1.35-.44,3.24-1,4.8-.59,2-.25,4.27-1.8,6-3.38,12.4-19.42,13.1-28,9.11-1.6-.74-2.75-2.56-4.87-2.14-.1-1-.21-2.07-.32-3.11-.86-4-4-7.77-.81-12,2.15-.7,3.31,1,4.75,2,9.8,6.5,20.79,4.34,27.44-5.44.75-1.09,1.41-2.26,2.87-2.52A5.39,5.39,0,0,1,546.79,335.3Z"/><path class="cls-27" d="M544,346.08c.4-2.05.61-4.16,1.8-6l.06,5Z"/><path class="cls-25" d="M356.12,344.18c-1-2.88,1-6.1-1-8.86a5.05,5.05,0,0,1,1.76-3.33c1.84-.47,2.16,1.12,2.79,2.16,5.94,9.71,17.27,12.29,26.94,6.16,1.61-1,2.86-2.89,5.18-2.46,3.35,4.2.43,8.08-.59,12.06-.11.69-.21,1.39-.32,2.09-4.47,3.2-9.1,5.27-15,5.28-9,0-15.27-3.14-18.38-11.82C357.35,344.93,356.61,344.6,356.12,344.18Z"/><path class="cls-28" d="M511,338.06c-2.36,3.93.43,7.93-.18,11.88-2.36-1.27-1.81-4.15-3.79-6.59,0,6.73-6.58,9.12-7.9,14.68-.06-3.23,0-6.47-.24-9.67-.14-1.59.46-3.68-1.78-4.52-.32-1.18.46-1.88,1.25-2.39a17.68,17.68,0,0,0,7.44-9.9,2,2,0,0,1,1.6-1.61l.55,0C509.73,332.36,511.27,334.86,511,338.06Z"/><path class="cls-29" d="M391.2,349.91c-.41-4,2.09-8-.24-11.85-.32-3.21,1.21-5.71,3.05-8.1l.58,0c2.62,5.23,6.65,9.41,10.26,13.91-3.94,3.14-.79,7.59-2.07,11.22-4.32-2.53-6.46-6.71-8.24-11.27C393,345.79,393.48,348.6,391.2,349.91Z"/><path class="cls-21" d="M404.85,343.84c-5.71-2.95-9.49-7.32-10.26-13.91q0-25.55.11-51.09c0-2,.2-3.95.3-5.92h36.9q.14,27.91.28,55.85a2.23,2.23,0,0,1-.22,3.16C426.91,343.81,419.79,346.94,404.85,343.84Z"/><path class="cls-8" d="M394,330c.38,3.23-1.4,5.64-3.05,8.1-9.11,11.23-27.46,8.78-33.07-4.41a12.9,12.9,0,0,0-1-1.66q-.09-3-.16-6,.12-23.82.25-47.63c0-1.79-.39-3.64.43-5.38,10.61,0,21.22.16,31.83-.06,3.73-.07,4.83,1.11,4.79,4.81C393.87,295.14,394,312.55,394,330Z"/><path class="cls-21" d="M507.35,329.94c-.83,6.56-4.56,11-10.3,13.9a32.32,32.32,0,0,1-11.78,1c-8-.68-12.75-5.51-15.35-12.8-2.67-4.65-1.05-9.66-1.2-14.52a4.24,4.24,0,0,1,.88-1.63q.19-21.45.4-42.9l36.91,0q.15,24.54.31,49.09C507.24,324.65,507.31,327.29,507.35,329.94Z"/><path class="cls-8" d="M511,338.06c-1.65-2.46-3.43-4.86-3.05-8.08,0-17.41.13-34.83,0-52.24,0-3.69,1.05-4.89,4.79-4.82,10.61.22,21.22.07,31.84.06,1,10.22.21,20.46.43,30.69.16,7.44.17,14.88.25,22.32-.06,2-.11,4-.17,6C537.74,346.85,520.57,349.92,511,338.06Z"/><path class="cls-8" d="M469.6,315.84l.14,1.23c-.94,5,.45,10.05-.74,15a16.74,16.74,0,0,1-14.06,12.85c-10,1.21-17.46-2.15-21.22-9.5L432,331.93c.08-1.05.15-2.1.22-3.16,1.28-1.62.69-3.52.7-5.29.05-14.94.22-29.89-.09-44.83-.1-4.76,1.49-5.92,5.94-5.74,8.13.32,16.28.31,24.4,0,4.43-.17,6.11.93,5.95,5.72-.38,10.78-.14,21.59-.1,32.38C469,312.63,468.54,314.35,469.6,315.84Z"/><path class="cls-30" d="M469,332.07c.35-5-1-10.07.74-15l.18,14.92C469.62,332,469.31,332,469,332.07Z"/><rect class="cls-1" x="452.78" y="78.19" width="60.88" height="41.95"/><polygon class="cls-8" points="461.95 95 508.95 95 499.95 105 508.95 115 461.95 115 461.95 95"/><rect class="cls-9" x="449.95" y="82" width="31" height="21"/><polygon class="cls-13" points="461.95 103 480.95 103 461.95 115 461.95 103"/></svg>