<svg id="Layer_1" data-name="Layer 1" xmlns="http://www.w3.org/2000/svg" viewBox="0 0 900 650"><defs><style>.cls-1{fill:#fefefe;}.cls-2{fill:#e17b3e;}.cls-3{fill:#575655;}.cls-4{fill:#e7e5e3;}.cls-5{fill:#efedeb;}.cls-6{fill:#999796;}.cls-7{fill:#989695;}.cls-8{fill:#d0cecc;}.cls-9{fill:#615f5f;}.cls-10{fill:#979595;}.cls-11{fill:#676565;}.cls-12{fill:#6a6868;}.cls-13{fill:#686666;}.cls-14{fill:#636161;}.cls-15{fill:#696767;}.cls-16{fill:#656363;}.cls-17{fill:#747272;}.cls-18{fill:#6b6969;}.cls-19{fill:#dddbd9;}.cls-20{fill:#696766;}.cls-21{fill:#626060;}.cls-22{fill:#646262;}.cls-23{fill:#dcdad9;}.cls-24{fill:#716f6e;}.cls-25{fill:#5e5c5c;}.cls-26{fill:#716f6f;}.cls-27{fill:#5c5a5a;}.cls-28{fill:#c9c7c6;}.cls-29{fill:#acaaa9;}.cls-30{fill:#5f5d5d;}.cls-31{fill:#797777;}.cls-32{fill:#c8c6c5;}.cls-33{fill:#c6c4c3;}.cls-34{fill:#45b29c;}.cls-35{fill:#238ab3;}.cls-36{fill:#eec74a;}.cls-37{fill:#bc3e25;}.cls-38{fill:#a09d9c;}</style></defs><title>gamepad</title><path class="cls-1" d="M1,651H894.39c6.59,0,6.59,0,6.59-6.57V1c.31.22,1-.5,1,.5,0,1.34,0,2.67,0,4q0,321,.1,642c0,3.75-.85,4.6-4.6,4.6q-446-.15-892-.16C4,651.92,2.09,653.08,1,651Z"/><path class="cls-2" d="M596,115.08a229.85,229.85,0,0,1,51,46c43.1,51.88,62.87,111.72,59.79,179-5.18,113.49-89.12,212.88-200.46,235.87-90,18.58-169.22-4.21-235.4-68C228.49,467,203.71,416.3,197,357.62c-9.35-81.57,14.61-152.59,71.76-211.46,41.15-42.4,91.88-67,150.68-74.28A252.67,252.67,0,0,1,556.87,92.71c1.51.68,2.94,1.54,4.4,2.32.66,2.31-1.11,3.28-2.51,4.39-11,8.72-15.34,20.18-15.49,34.1-.17,15.17,3.42,29.71,5.59,44.5.86,5.81.57,11.62.35,17.44a9.9,9.9,0,0,1-1,3.85c-1.29,2.69-2.42,5.69-5.89,6.19-3.73.53-5.15-2.45-6.76-4.94-4-6.14-7.3-12.67-12-18.38a41.09,41.09,0,0,0-27.66-15.36c-11.92-1.4-23.76-.81-33.82,7.07-10.48,8.22-14.75,19.7-16.67,32.43-2.53,16.79,0,33.17,3.37,49.53.4,1.9,1.29,3.88-.22,5.74a60.48,60.48,0,0,1-8.61,4.27c-8.32.18-16.48-1.77-24.86-1.48-23.13.81-46.23-1.73-69.37-.93a68.38,68.38,0,0,0-33.15,9.88,13.86,13.86,0,0,0-5.7,5.45c-1.51,3.24-4.2,5.51-6.71,7.87-10.9,10.2-16.89,23.19-21.3,37.09-.61,1.94-.19,3.95-.52,5.91-.73,21.54.12,42.67,13.56,61.11,24.35,33.41,69.9,40.1,103.19,14.91a14.35,14.35,0,0,1,9.16-3.12q49.25,0,98.48,0A16,16,0,0,1,512.87,406c27.5,21.13,66.34,20.26,93.17-4.49,14-12.87,21.79-29.3,22.45-48.63.17-5.14.43-10.33-.42-15.46,2.88-23.07-9.66-39.24-24.43-54.38-1.28-1.31-2.76-2.39-3.38-4.2a11.33,11.33,0,0,0-4.72-5c-10.42-6.3-21.55-10.21-33.89-10.42-26.91-.48-53.78,1.82-80.7,1.09-4.65-.13-9.1,2.11-13.83,1.36a80.5,80.5,0,0,0-8.8-3.8c-3.05-3-3.29-7.21-4.07-11-3.12-15.21-5.25-30.52-2.65-46.07A58.34,58.34,0,0,1,457,189c10.19-20.92,47.71-23.39,62.88-1.48,3.41,4.93,6.6,10,9.68,15.14.35.57.65,1.17,1,1.71,2.86,4.13,5.6,9,11.48,8.24,6.47-.8,9.95-5.67,12.06-11.4,2.91-7.91,2.12-16.05,1-24.16-1-6.93-2.41-13.78-3.81-20.62-1.86-9.07-2-18.19-1.67-27.34a31,31,0,0,1,9.45-21.92c5.15-5,10.36-5.69,16.83-2.43C582.63,108.1,588.92,112.32,596,115.08Z"/><path class="cls-3" d="M447.42,260.89c-3.69-15.09-6.32-30.3-5.43-45.92a87,87,0,0,1,2.76-18.22c6.21-22.59,22.49-34.2,45.89-33.11,18,.85,31.15,9.41,40.41,24.5,2.7,4.4,5.32,8.85,7.91,13.3,1.93,3.32,3.61,2.66,5.43-.11,2.22-3.36,2.66-7.11,2.74-11,.22-11.42-2.83-22.41-4.59-33.57a135.09,135.09,0,0,1-1.94-24.34c.37-16.08,6.26-29.09,20.67-37.41a177.53,177.53,0,0,1,34.69,20c-3.47.13-6.47-1.41-9.49-2.78-2.12-1-4.14-2.15-6.19-3.25-12.94-6.89-21.64-3.46-26.34,10.72-3.73,11.27-2.23,22.75-.45,34.14,1.62,10.36,4.37,20.54,5.1,31,.6,8.67-.31,17-5.91,24.16-7.24,9.22-15.8,9-22.44-.64-4-5.76-7.28-11.95-11.16-17.76-9.12-13.66-22.4-17.78-37.92-15.45-15.31,2.29-24.65,13.25-27.15,31-2.63,18.69.47,36.83,5.32,54.8,1.68,2.46,1.54,4.8-.93,6.52a8.05,8.05,0,0,1-9.37.26C446.27,266.09,446,263.65,447.42,260.89Z"/><path class="cls-4" d="M630.94,337c2.11,24-3.28,45.7-20.36,63.55a74.43,74.43,0,0,1-98.76,7.76,15.25,15.25,0,0,0-10-3.37q-48.49.19-97,0a13.56,13.56,0,0,0-8.63,2.87c-25,18.23-52,21.31-79.49,7.25S276,377.22,276.13,346.27c0-5.79-1-11.66.81-17.37,1.88-3.21,2.29-6.92,3.56-10.34,6.15-16.49,17.86-28,32.59-36.87,12.53-7.55,26.43-9.92,40.71-10.07,25.47-.27,51-.5,76.42.11,12,.29,24,1.37,35.9.67,29.45-1.75,58.91-.73,88.36-.74,25.95,0,47.57,9.94,63.73,30.68,7.38,9.46,11,20.43,12.26,32.24A4.56,4.56,0,0,0,630.94,337Z"/><path class="cls-5" d="M630.94,337c-2.68-7.14-4.09-14.69-7.67-21.58-12.62-24.26-32.51-38-59.59-40.36-29.4-2.58-58.93-1.15-88.38-.74-15,.2-29.88.24-44.84-.12-25.65-.64-51.32-.41-77-.12-30.23.34-53.45,13.27-68.63,39.73-3.4,5.92-5.6,12.4-7.43,20.58l-.49-5.46c2.08-20.81,12.14-37.11,28.18-50,12.18-7.1,24.23-14.51,39.09-14.32,29.05.39,58.07-1.83,87.13-1.06,2.49.07,5,0,7.47,0,2.78-1.15,5.56-2.34,8.61-2.56,1,2.37,1.39,5.13,4.42,6,3.87,1.15,6.64-1,7.49-5.91,3.21-.12,6.07,1.07,8.89,2.39,5.82.19,11.65.19,17.46.06,26.6-.59,53.16,1.72,79.76,1.13a37.11,37.11,0,0,1,11.75,2c8.95,2.74,17.06,7.19,24.9,12.2C620.78,293.7,631,312.8,630.94,337Z"/><path class="cls-6" d="M438.81,263.45l-47.92.23c-2.64,0-5.23-.27-7.34,2.1-1.27,1.43-3.41,1.08-5.23,1.08-9.16,0-18.34.38-27.47-.08-13.89-.7-26.27,3.33-37.82,10.6-2.5,1.58-4.93,2.84-7.91,1.47-1.68-2.46.18-3.6,1.82-4.77C318.34,266,331,261.26,345,260.91c10.64-.26,21.54-1.5,31.89.25C397.55,264.65,418.22,262.07,438.81,263.45Z"/><path class="cls-6" d="M602.09,278.82c-2.55,1.17-4.75.47-7-1-12-7.83-25.06-11.89-39.59-11-7.12.42-14.28.15-21.42,0-4.38-.07-8.93.93-12.76-2.65-.94-.88-3.18-.48-4.83-.49q-24.15-.18-48.27-.3c11.5-.07,23-.21,34.48-.19,19.69,0,39.19-3.7,59-2.47a73.21,73.21,0,0,1,38.24,13C601.59,274.9,603.92,276,602.09,278.82Z"/><path class="cls-7" d="M558.34,284.84c36.32,0,64.81,28.73,64.79,65.26,0,36.25-28.84,64.9-65.25,64.88A64.87,64.87,0,0,1,493,349.63C493,313.46,521.91,284.81,558.34,284.84Z"/><path class="cls-8" d="M312,348.41C312,327,329.27,310,351,310c21.42,0,39,17.42,39,38.6,0,21.6-17.52,39.33-38.91,39.4C329.25,388,312,370.54,312,348.41Z"/><path class="cls-9" d="M457.94,300c10.8,0,21.6,0,32.41.05,1.39,0,3.51-.95,3.65,1.92s-1.9,2.59-3.67,2.59H425.52c-1.81,0-3.85.29-3.69-2.62s2.3-1.88,3.7-1.89C436.34,299.93,447.14,300,457.94,300Z"/><path class="cls-7" d="M422,362.86a53.59,53.59,0,0,1,9.92-9.87,5.57,5.57,0,0,1,4.05-2.53c2.14-.32,3.37,1.13,4.38,2.63,1.2,1.77.61,3.45-.84,4.86-4.59,4.47-8.85,9.28-13.75,13.44-2,.22-3.78,0-5.16-1.64C419.59,367.16,419.82,364.81,422,362.86Z"/><path class="cls-10" d="M462.09,371.79l-4.17.1c-1.19-1.8-2.74-3.45-2.31-5.88,3.48-5.79,8.8-9.89,13.61-14.41a4,4,0,0,1,6.21.4c2.08,2.37,1.51,4.45-.51,6.56C470.67,363,466,367,462.09,371.79Z"/><path class="cls-11" d="M462.09,371.79c1.66-4.63,6.08-6.88,9-10.41,1.06-1.28,2.36-2.36,3.47-3.59,1.55-1.71,1.85-3.56.13-5.33s-3.71-1.43-5.3.14c-4.49,4.45-8.86,9-13.28,13.54-.69-.05-.67-.66-.85-1.1,3.79-5.49,8.92-9.71,13.71-14.22,2.19-2.07,5-1.71,7.1.56s2.2,4.95,0,7.12C471.44,363,467.42,368.08,462.09,371.79Z"/><path class="cls-12" d="M469.94,294.94c-2.22.49-4.68,1.57-6.13-1.19-1.57-3-.51-5.87,1.42-8.28,1.46-1.82,3.45-2.3,6.34,0-4.12.32-6.25,2-6.17,5.58,0,1.05.42,2.17,1.56,2.16,1.4,0,1.42-1.15.92-2.11-.62-1.18-.42-1.89.91-2.07s2.28.27,2,1.89C470.55,292.25,471.54,293.87,469.94,294.94Z"/><path class="cls-13" d="M459.66,295.48c-3.62-1-3.28-2.88-4.07-4-1.64.61-.67,2.89-2.75,3.58-.77-3.48.26-6.69,1.07-9.85.54-2.11,2.44-1.29,3.76-1a2.54,2.54,0,0,1,2,3.78C458.54,290.19,457.24,292.2,459.66,295.48Z"/><path class="cls-14" d="M471.74,291.78c1.75-2.51,1.68-8.36,4.83-7.2s1.05,6.57,1.41,11.72c-2.78-4.69-4.87-2.17-7-1.28C469.93,293.62,470.92,292.73,471.74,291.78Z"/><path class="cls-15" d="M425.71,370.89c3.63-3.65,7.3-7.27,10.89-11,1.92-2,4.79-3.89,2.4-7.11-2.23-3-4.75-.83-7.11.17,1.48-4,4.42-4.38,7.46-2.29s3.48,5.25.71,8.05c-4.17,4.22-8.07,8.75-12.87,12.33A.91.91,0,0,1,425.71,370.89Z"/><path class="cls-16" d="M431.08,284c2.31-.22,1.8,1.31,1.58,2.6-.39,2.18-1.29,4.36-.08,7.07,3.78-2.43,1.45-7.22,4.77-10-.64,4.22,1.06,8.48-2.74,11.27-1.56,1.14-3.51.78-4.85-1C427.59,290.34,427.81,287,431.08,284Z"/><path class="cls-11" d="M450.54,294.74c-1.63.5-4,1.24-4.49-.33-.92-3,.33-6.23,1.18-9.19.7-2.41,3-.87,5.08-1.2C449,287.25,448.28,292.64,450.54,294.74Z"/><path class="cls-11" d="M495.72,294.75c-1.71.5-3.93,1.22-4.49-.36-1.06-3,.32-6.18,1.14-9.11.64-2.24,2.85-1.36,4.52-.9.64,2.48-4.3,1.17-2.55,3.53,1.27,1.71,1.65,1.73-.34,3.15C491.07,293.15,495.81,293.05,495.72,294.75Z"/><path class="cls-17" d="M428.08,294c-1.9,1.56-3.85,2.4-6.59-.07,5.24-.38,4.86-1.94,2.14-5.19-2.06-2.46.56-4.78,5.29-4.75C428.9,287.37,429.29,290.76,428.08,294Z"/><path class="cls-18" d="M439.18,295.36c-2.14-3.49.16-6.18,0-9.1a2.06,2.06,0,0,1,2.61-2.22c1.2.31,2.8.42,3.22,1.83s.81,3.14-.89,4C441.82,291,439.68,292.17,439.18,295.36Z"/><path class="cls-9" d="M480.17,290a1.13,1.13,0,0,1,0-.48c.52-1.88-.29-5.16,2-5.24,3.14-.11,1.1,3.33,2,5,.18.33.63.52.95.77.91,0,1.35.28,1,1.24-.66,1.54-.26,4-3.09,3.69a6.18,6.18,0,0,1-1.92-2.54A15,15,0,0,0,480.17,290Z"/><path class="cls-19" d="M403.9,290.29l.31-1.68c3-1.12,4.94.56,6.85,2.42l-.07-.1c1.39,1.73,3.43,3,4,5.3-1.3.89-2.8.82-4.27.82-2.25,1.66-4.15.81-5.95-.82S402.29,292.56,403.9,290.29Z"/><path class="cls-20" d="M411.06,291c-2.43-.38-5.37.66-6.85-2.42.47-2.31,1.42-4.31,4.22-3.72C412,285.65,410.54,288.82,411.06,291Z"/><path class="cls-9" d="M403.9,290.29c2.19,1.93.92,4.4,1,6.66l.08-.08a5.43,5.43,0,0,0-1.44-.36c-2.37,0-4.63-.43-4.46-3.32S401.49,289.93,403.9,290.29Z"/><path class="cls-21" d="M405,296.87l-.08.07c2-1.82,3.89-1.4,5.8.11.52,2.63-.07,4.92-3.13,4.81S404.15,299.45,405,296.87Z"/><path class="cls-16" d="M486.11,291.27l-1-1.24c1.43-2,.94-6.58,4.09-5.61,2.4.75.27,4.59,0,7-.16,1.17.32,2.75-1.3,3.45C485.94,294.31,487.75,292,486.11,291.27Z"/><path class="cls-22" d="M415,296.23c-4.07.3-6.39-.72-4-5.3,1.7-1.14,3.42-1.2,4.67.5S416.3,294.77,415,296.23Z"/><path class="cls-23" d="M428.08,294a11.62,11.62,0,0,0,.08-1.95c-.19-1.44.32-7.34.76-8.06h2.16a41.56,41.56,0,0,0-1.32,10Z"/><path class="cls-24" d="M422,362.86c-.68,2.3-1.28,4.61-.78,7a.58.58,0,0,1-1,.08C418.11,366.94,418.07,364.4,422,362.86Z"/><path class="cls-25" d="M455.26,365c.29.36.57.73.85,1.1.6,1.91,1.21,3.83,1.81,5.75C455,370.4,454.24,368.06,455.26,365Z"/><path class="cls-26" d="M420.18,370l1-.08,4.52,1,1.48.19C424.51,373,422.16,372.67,420.18,370Z"/><path class="cls-27" d="M480.17,290c.6.62,1.2,1.23,1.81,1.84,0,1.15,0,2.32-1.07,3.09C477.59,293.76,480.54,291.64,480.17,290Z"/><path class="cls-28" d="M480.91,294.94c.19-1.08-.22-2.38,1.07-3.09,1.27.73.85,2,1,3.11Z"/><path class="cls-29" d="M471.74,291.78c-.27,1.08-.53,2.16-.79,3.24l-1-.08c.06-1.4-.17-2.85.85-4.05Z"/><path class="cls-4" d="M576.32,324.3c-.18,5.46-1.81,9.61-6.23,12.74-12.48,8.84-24.77,18-37.18,26.92a16.16,16.16,0,0,1-22.53-3.82c-5.59-7.62-4.4-17.67,2.89-23,12.06-8.87,24.32-17.48,36.26-26.5,5.8-4.38,11.58-4.66,17.69-1.43S576.22,317.79,576.32,324.3Z"/><path class="cls-4" d="M609.15,351.38c.13,4.2-1.8,8.31-6.37,11.54-12.36,8.73-24.5,17.77-36.77,26.63-7.41,5.35-17.3,3.59-22.86-3.93a16.31,16.31,0,0,1,3.27-23c12-8.73,24.07-17.24,35.87-26.17,5.77-4.38,11.56-4.74,17.68-1.65S609.15,343.25,609.15,351.38Z"/><path class="cls-30" d="M336,339.12a4.63,4.63,0,0,0,2.77-4.81c-.05-2.32.14-4.65,0-6.95-.33-4.41,1.4-6.49,6-6.27,4.3.2,8.61.1,12.92,0,3.74-.07,5.51,1.6,5.34,5.4-.12,2.65,0,5.3,0,8a4.36,4.36,0,0,0,2.95,4.65,1.06,1.06,0,0,1-.22,1.45c-3.63,1.78-5.26,0-5.92-3.39a24.77,24.77,0,0,1-.24-3c-.47-6.43-1.82-7.68-8.39-7.74-7.18-.06-8.29,1-8.79,8.23-.42,6.09-1.26,6.9-6.13,5.9A1.07,1.07,0,0,1,336,339.12Z"/><path class="cls-21" d="M364.92,363.8c-3.38,3.13-1.67,7.19-1.84,10.83-.29,6.23-.68,6.86-6.84,6.92-4.14,0-8.29,0-12.43,0-3.49,0-4.89-1.69-5.1-5.21-.26-4.17,1.57-8.68-1.68-12.44.25-2.06,1.64-1.93,3.12-1.64,2.8,1.73,2.05,4.62,2.26,7.15.48,6,1.83,7.16,8.74,7.13,6.58,0,7.92-1.18,8.41-7,.21-2.53-.55-5.41,2.12-7.25C363.16,361.93,364.55,361.76,364.92,363.8Z"/><path class="cls-30" d="M379.16,339.87c1.69,1,1.85,2.57,1.85,4.29,0,4.8,0,9.6,0,14.4,0,2.1-.2,4-2.79,4.53a1.89,1.89,0,0,1-2.9-.89c.5-7.15-.35-14.35.92-21.47A2,2,0,0,1,379.16,339.87Z"/><path class="cls-21" d="M323.64,363.13a3,3,0,0,1-2.72-3.08c-.06-6,0-12,.06-18a2.73,2.73,0,0,1,1.74-2.27,2.48,2.48,0,0,1,3.16.77c1.21,7.19.23,14.45.75,21.67C325.93,363.56,324.88,363.67,323.64,363.13Z"/><path class="cls-18" d="M323.64,363.13l2.31-1c4.27-3.91,11.67-3.45,13.94.86l-2.86.88C332.59,363.16,328.05,364.29,323.64,363.13Z"/><path class="cls-18" d="M376,362.12l2.19,1c-4.38,1.21-8.88.11-13.29.71l-2.84-.8C364.35,358.7,371.72,358.23,376,362.12Z"/><path class="cls-31" d="M379.16,339.87,377,341c-4,2.24-7.57,1.91-11-1l-.06-.89C370.35,339.28,374.84,338.07,379.16,339.87Z"/><path class="cls-31" d="M325,341l-2.27-1.18c4.36-1.68,8.87-.55,13.31-.69L336,340C332.59,343.51,328.85,342.84,325,341Z"/><path class="cls-32" d="M455.36,287.62c.19-.77.35-1.63,1.42-1.5a1,1,0,0,1,.89,1.37,2.25,2.25,0,0,1-1.23,1.28C455.79,288.94,455.29,288.42,455.36,287.62Z"/><path class="cls-33" d="M441.18,286.61a1.34,1.34,0,0,1,1-.35,1.7,1.7,0,0,1,1,1.3,1.78,1.78,0,0,1-1.1,1.27C441.34,289,441.11,288.3,441.18,286.61Z"/><path class="cls-34" d="M523.66,337.83A12,12,0,0,1,536.05,350a12.24,12.24,0,0,1-12.69,12.53A12.4,12.4,0,0,1,511.16,350,12.18,12.18,0,0,1,523.66,337.83Z"/><path class="cls-35" d="M559.77,311.54a12.45,12.45,0,0,1-.27,24.89,12.45,12.45,0,1,1,.27-24.89Z"/><path class="cls-36" d="M556.2,388.12A12.4,12.4,0,0,1,544,375.56a12.74,12.74,0,0,1,12.64-12.29,12.53,12.53,0,0,1,12.3,13C568.77,383.27,563.38,388.25,556.2,388.12Z"/><path class="cls-37" d="M592.44,362.13A12.5,12.5,0,0,1,580,349.78a12.63,12.63,0,0,1,12.7-12.62A12.33,12.33,0,0,1,605,350.07,12.2,12.2,0,0,1,592.44,362.13Z"/><path class="cls-7" d="M325,341c3.56-1.49,7.32-.67,11-1,3.12.45,3.94-1.12,4.08-4,.56-12,.63-12,12.58-12,1.5,0,3,0,4.49,0,3.34,0,4.83,1.74,4.82,5,0,2.32.11,4.65,0,7-.13,2.91.93,4.46,4.05,4,3.67.14,7.38-.18,11,1,1.26,7.11,2.91,14.23-.94,21.11-4.65.23-9.4-1.17-13.94.88-.05,3.48-.16,7-.14,10.44s-1.5,5.33-5,5.35q-6,0-11.93,0c-3.52,0-5-1.87-5-5.35s-.07-7-.12-10.44c-4.54-2.06-9.29-.67-13.94-.86a3.74,3.74,0,0,1-2-3.2C324.2,353,322.52,346.85,325,341Z"/><path class="cls-38" d="M350.45,359.84c-4.32,0-8.42-4.51-8.22-9,.16-3.78,4.37-7.77,8.25-7.83,5-.07,8.42,3.3,8.46,8.36A8.24,8.24,0,0,1,350.45,359.84Z"/></svg>