<svg id="Layer_1" data-name="Layer 1" xmlns="http://www.w3.org/2000/svg" viewBox="0 0 900 650"><defs><style>.cls-1{fill:#eec74a;}.cls-2{fill:#797a7a;}.cls-3{fill:#626262;}.cls-4{fill:#939595;}.cls-5{fill:#787979;}.cls-6{fill:#5d5d5d;}.cls-7{fill:#4b4b4b;}.cls-8{fill:#7e7a6a;}.cls-9{fill:#a2a5a5;}.cls-10{fill:#838585;}.cls-11{fill:#b8bcbc;}.cls-12{fill:#919393;}.cls-13{fill:#c9cece;}.cls-14{fill:#878989;}.cls-15{fill:#949898;}.cls-16{fill:#919494;}.cls-17{fill:#7b7d7d;}.cls-18{fill:#b3b8b8;}.cls-19{fill:#a1a4a4;}.cls-20{fill:#848686;}</style></defs><title>safe</title><path class="cls-1" d="M451.07,582c-141.67.78-259.53-116.62-256.15-262.3C198.14,180.87,313.73,66.39,457.67,69.91c138.77,3.4,252.9,119,249.39,262.62C703.68,470.78,589.9,582.52,451.07,582Z"/><path class="cls-2" d="M388,135.14q40.69-.07,81.4-.15c26.64,0,53.28,0,79.91,0,9.39,0,15.86,4.19,19.53,12.74,4.85,11.31,9.72,22.62,14.44,34A60.61,60.61,0,0,1,588,205q0,35.46,0,70.93c0,1.65-.19,3.31-.3,5-3.39-.89-2.81-3.81-2.86-6.14-.25-11.16-.09-22.33-.11-33.5,0-10.66.08-21.33,0-32-.11-9.74-3.25-12.95-12.95-13-37.66-.1-75.33,0-113-.05a92.25,92.25,0,0,1-10-.26c-3.8-1.45-6.56-4.34-9.36-7.1-11.25-11.08-22.31-22.37-33.57-33.45-5-4.9-10.55-9.14-15.24-14.34C389.08,139.43,387,138,388,135.14Z"/><path class="cls-3" d="M388,135.14q25.91,25.58,51.79,51.15c2.48,2.45,4.77,5.08,7.14,7.63-1.88,3-5,2.26-7.68,2.28-19.62.13-39.25.06-58.88.07-12.8,0-25.61,0-38.42,0-9.37,0-18.93-1.22-27.56,4-1.18-.61-.92-1.54-.56-2.49a33.1,33.1,0,0,1,2.69-11.61c5.81-13.78,11.6-27.57,17.94-41.11a17,17,0,0,1,15.62-10C362.73,134.84,375.38,135.09,388,135.14Z"/><path class="cls-4" d="M314.05,200.06c3.25-4.62,7.69-6.17,13.31-6.15,39.86.12,79.73,0,119.59,0l125.29.07C583,194,587,198,587,208.65q0,33.19,0,66.39c0,2-.32,4,.69,5.87-.88,2.59-.7,5.27-.7,7.93,0,65.31-.17,130.63.17,195.94.05,11-5,17.45-16.53,16.23a39.57,39.57,0,0,0-4.49,0,15.8,15.8,0,0,1-6.76,1.23H532.61a15.76,15.76,0,0,1-6.75-1.23H375.16a1.27,1.27,0,0,1,.08-1.7c2.7-2.34,6-1.55,9.07-1.56,33.88-.08,67.76,0,101.64-.06,3.12,0,6.48.44,7.95-3.44,2.61-2.08,5.73-1.5,8.66-1.51,21.33-.09,42.65,0,64-.05,2.17,0,4.33,0,6.5-.16,3.29-.3,5.15-2.09,5.49-5.39a57.17,57.17,0,0,0,.17-6q0-133.71,0-267.42c0-1.33,0-2.66-.06-4-.29-5.58-1.76-7.1-7.21-7.39-1.67-.09-3.33-.06-5-.06H334c-12.41,0-12.71.3-12.72,12.5,0,21.33,0,42.66,0,64,0,3,.28,6-.66,8.92-2,2.89-3.76,1.67-5.37-.32-1-1.26-1.33-2.93-2.09-4.36q0-40.06,0-80.15C313.91,202.07,313,200.75,314.05,200.06Z"/><path class="cls-5" d="M313.15,283c2.42,1.54,4,3.94,5.85,6a3.43,3.43,0,0,1,1.19,1.52,51.14,51.14,0,0,1,1.11,12.4q0,88.95,0,177.91c0,11.32.54,11.86,11.83,11.87q74,0,147.92,0c3.84,0,7.67,0,11.39,1.13a3.26,3.26,0,0,1,1.49,1.23c.61,1.45,2.91,2.53,1.84,4.24-.95,1.5-3.08.67-4.67.68Q433,500,375,500a5.51,5.51,0,0,1-4.32,2.11c-10.63.27-21.25.25-31.88,0a13.37,13.37,0,0,1-3.82-1c-2.83-.07-5.65-.16-8.48-.19-8.77-.07-13.46-4.75-13.46-13.62q0-73.66,0-147.34C313,321,313.1,302,313.15,283Z"/><path class="cls-6" d="M525.86,501a3.35,3.35,0,0,1,2.71-1q17.43,0,34.86,0a3.39,3.39,0,0,1,2.72,1c0,4.48-.2,9-.12,13.45.05,2.46-.62,3.58-3.33,3.55q-16.69-.16-33.39,0c-2.72,0-3.39-1.09-3.34-3.55C526.06,510,525.91,505.5,525.86,501Z"/><path class="cls-7" d="M335,501.08c1.65-1.64,3.75-1.06,5.67-1.07,11.45-.05,22.9,0,34.35,0,.06.34.12.68.19,1-.06,4.48-.21,9-.12,13.46,0,2.43-.52,3.59-3.29,3.56q-16.71-.19-33.42,0c-2.68,0-3.45-1-3.37-3.49C335.1,510.06,335,505.56,335,501.08Z"/><path class="cls-8" d="M314.05,200.06a3.72,3.72,0,0,1-.91,2.79c-.21-1.75-.32-3.49.71-5.07C313.91,198.54,314,199.3,314.05,200.06Z"/><path class="cls-9" d="M493.93,495c-.29-.05-.57-.08-.86-.11-6.14-2.63-9.45-8.13-13.19-13.15a3.44,3.44,0,0,1,.29-4.6c2.47-2,5.41-1.42,8.18-1.43,19.83-.09,39.65,0,59.48-.05,2.33,0,4.67.08,7-.13,6.09-.55,9.27-3.8,9.78-10,.19-2.32.12-4.66.12-7q0-47.24-.05-94.46c0-3.65.76-7.29.1-10.94A85.19,85.19,0,0,1,564.5,343a17.26,17.26,0,0,0,.69-3.49c-1-20.63-.29-41.27-.45-61.91-.12-14.65,0-29.3,0-43.95,0-14.23-2.17-16.36-16.6-16.36q-98.14,0-196.29,0c-14.39,0-16.52,2.13-16.53,16.44,0,20.31,0,40.63,0,60.94,0,3,.23,6-.59,8.93-2.61,3.68-5,1.46-6.83-.63-3.51-3.93-7.41-7.67-8.77-13.07,0-.3-.05-.6-.08-.9q0-40,0-80c0-7.64,1.39-9,9.05-9q122,0,244,0c7.61,0,9,1.39,9,9.07V486c0,7.6-1.4,9-9.09,9Q532.92,495,493.93,495Z"/><path class="cls-10" d="M319.08,289.89c5.28,4.45,8.53,10.77,13.92,15.12a2.73,2.73,0,0,1,1.82,3c.57,12.48-.35,25,0,37.41,1,39.65,0,79.3.6,119,.12,7.9,3.71,11.21,12.08,11.26,27.67.16,55.33,0,83,.1,15.49.08,31-.62,46.47.49,2-.17,2.71,1.1,3.05,2.77q6.56,8,13.09,15.94-83.16,0-166.32,0c-5.92,0-7.74-1.84-7.74-7.8Q319,388.53,319.08,289.89Z"/><path class="cls-11" d="M565.94,343.08c1,3,1.61,6,.12,9,0,3.14-1.56,5.06-4.47,6a8.33,8.33,0,0,1-4.3,1.07c-13.26,0-26.53.49-39.79-.25-1.53-.12-3.06,0-4.59-.07a107.46,107.46,0,0,1-14.35.34,17.64,17.64,0,0,0-4.17-.15c-1.49-.27-3,.24-4.45.05-7.34-1-12.7,1.26-16.05,8.31a12.81,12.81,0,0,1-6.58,5.88c-3.91,1.66-5.54,4.43-5.12,8.6.22,2.15-.46,4.28-.38,6.44.15,1.4-.06,2.79.08,4.19a71.58,71.58,0,0,1,.05,14.34c.05,1.53,0,3.07,0,4.6.33,14.07.89,28.14-.29,42.2-2.69,3.61-4.81,1.3-6.69-.82-5.42-6.12-10.85-12.25-15.39-19.11a8.27,8.27,0,0,1-.14-1.72,97.18,97.18,0,0,1-.34-20.67c.09-1.5-.06-3,0-4.49a96,96,0,0,1-.2-14.29c.45-1.36.17-2.76.22-4.14.24-3.16-.49-6.27-.44-9.42,0-2-1.05-3.36-2.66-4.49-4.94-3.44-9.42-7.35-12.31-12.78a4.66,4.66,0,0,0-4.57-2.44c-3.82.06-7.62-.4-11.44-.25a18.5,18.5,0,0,0-4.14.14,93.38,93.38,0,0,1-14.09-.33c-1.44.08-2.88,0-4.31,0-2.54.49-5-.15-7.55-.28a3.86,3.86,0,0,1-1.62-.21c-5.12-4.06-9.16-9.13-13.15-14.22-1.43-1.83-2.67-4-.26-6.16,3.78-.95,7.61-.41,11.41-.42,14.81-.07,29.62-.12,44.42,0,2.8,0,4.68-.77,6.12-3.23A34.83,34.83,0,0,1,436.64,322c1.91-1.16,2.48-2.49,2-4.5.08-5.41-.05-10.83.46-16.22-.28-1.51,0-3-.27-4.55A121.31,121.31,0,0,1,439,282a75.94,75.94,0,0,1,.06-13.06c-.66-8.94-.36-17.89-.23-26.83a7.31,7.31,0,0,1,1-4.3c.77-.85,1.5-1.74,2.32-2.55,5.8-5.77,9.82-5.79,15.6-.07.82.82,1.57,1.69,2.35,2.54,1.58,2.76,1.1,5.82,1.12,8.76,0,7.45.3,14.92-.26,22.37a78,78,0,0,1,0,13.06,80.75,80.75,0,0,1-.07,14.75c-.09,1.52.05,3,0,4.57.66,5.41.05,10.87.63,16.28-.48,2.54,1.37,3.51,3.12,4.5a29.34,29.34,0,0,1,12,11.63c1.62,3,3.84,4,7.24,3.94,24.25-.16,48.51-.06,72.76-.08C560.9,337.47,564.62,338.26,565.94,343.08Z"/><path class="cls-4" d="M334,307l-1-2V229.57C333,219,337,215,347.34,215q102.66,0,205.32,0c10.2,0,14.33,4.06,14.34,14.09Q567,285,567,341c-3.4-1.06-6.92-2-7.64-6.3.61-4.48.37-9,.38-13.48q0-40.23,0-80.47a62.69,62.69,0,0,0-.17-7c-.61-5.54-3.78-8.69-9.35-9.3a62.81,62.81,0,0,0-7-.17q-92.21,0-184.42,0c-14.37,0-16.47,2.12-16.48,16.49,0,21,0,42,0,63,0,2.81.37,5.68-.88,8.37C337,314.41,335.11,313.1,334,307Z"/><path class="cls-4" d="M562.07,356.08a12.91,12.91,0,0,0,4-4c1.37,1.76.92,3.83.92,5.79q0,53.22,0,106.45c0,9.43-4.26,13.65-13.76,13.66q-33.5,0-67,0c-2.12,0-4.37-.5-6.28,1l-1.93-2c-2.75-.86-4.85-2-2.31-5.21,2.64-1.45,5.53-1,8.32-1,20-.06,40,0,60,0a46.46,46.46,0,0,0,7-.26c4.82-.76,7.74-3.69,8.46-8.53a50.42,50.42,0,0,0,.25-7.48q0-44.46,0-88.93C559.73,362.16,559.58,358.79,562.07,356.08Z"/><path class="cls-12" d="M560,336l7,5c-.34.7-.68,1.4-1,2.1-3.2-3.43-7.17-4.2-11.76-4.17-23.83.16-47.66,0-71.49.14-3.57,0-5.84-.8-7.42-4.29-2.57-5.68-7.15-9.57-12.87-12-2.21-.94-3.83-2-3.34-4.72,2.15-2,4.32-1.09,6.38.06a35.83,35.83,0,0,1,10.85,10c4.22,5.56,8.31,7.12,15.1,5.12a18.19,18.19,0,0,1,2.3-.88c2.29-.15,4,2.42,6.5,1.37a135.15,135.15,0,0,1,13.8.39c1.54-.13,3.08-.09,4.62-.11,12.07-.62,24.14-.29,36.21-.19C556.79,333.83,558.86,333.89,560,336Z"/><path class="cls-5" d="M475,473l3.05,4c-1.73,1.4-3.8,1-5.76,1q-62.91,0-125.82,0c-9.15,0-13.46-4.31-13.46-13.45q0-75.88,0-151.78c0-2-.41-4,1-5.77l5.89,6.13a2.74,2.74,0,0,1,1.52,1.92,86.78,86.78,0,0,1,.89,13.85c-.07,3.32,1.58,4.87,4.87,4.81a52.34,52.34,0,0,1,10.38.78,4,4,0,0,1,1.66.34c1.42,1.08,2.55,2.3,2,4.29-1.38,2.18-3.64,1.95-5.75,2-3.78.16-7.6-.24-11.36.27-6,.8-8.25,5.88-5,10.85,1,1.5,2.39,2.76,2.42,4.76a37.82,37.82,0,0,1,.72,9.43q0,43.68,0,87.35c0,2.33-.08,4.67.13,7,.55,6.05,3.82,9.27,9.93,9.79,2.49.21,5,.13,7.49.13H463.16c3.5,0,7-.06,10.37,1.09A3.2,3.2,0,0,1,475,473Z"/><path class="cls-9" d="M340.1,314.87l-.21-1.76q.06-38.48.11-76.94c0-10.09,4.11-14.18,14.24-14.18q96.67,0,193.34,0C558,222,562,226,562,236.5q0,46.71,0,93.42c0,2.14,1,4.83-2,6.1l-42,0c-3.45-2.87-2.31-7.14-2.9-10.72C510.72,298.49,491.49,278,464.66,272c-2.14-.48-4.15-1.17-5.6-3q0-12.4-.05-24.8a14.83,14.83,0,0,0-.95-6.33c-1.56-4.88-4.14-7.15-8.31-6.86s-7.12,2.41-7.81,6.87c-1.94,6.49-.57,13.15-.91,19.72-.19,3.8-.08,7.61-.1,11.41a10,10,0,0,1-5.38,3.26c-17.11,4.8-30.87,14.14-40.17,29.65a66.63,66.63,0,0,0-9.23,29.1c-.21,2.49-.19,5.08-3.07,6.28-6.31.36-12.61.05-18.92.17A9.52,9.52,0,0,1,359,336a8.46,8.46,0,0,0-.88-.11C349.81,330.85,344.35,323.38,340.1,314.87Z"/><path class="cls-10" d="M474.14,472.87q-60.92.06-121.81.08c-8,0-12.31-4.68-12.32-13.06Q340,408,340,356.05a4.88,4.88,0,0,1,3.68-1.23q13.19-.29,26.38,0c2.25.05,4.11,1.19,6.06,2.1l.86.16a14.8,14.8,0,0,1,7.44,6.28c1.62,2.49,3.33,5,6,6.48,1.25,1.78,2.76,3.39,3.45,5.51,3.3,9.3,9.73,15.93,18,21a24.46,24.46,0,0,1,4.65,4.44c5.34,7.19,11.72,13.51,17.43,20.39,3,3.6,5.86,7.17,7.13,11.77.05.29.09.58.12.88,2.76,4.56,2,9.62,2.07,14.56a74.24,74.24,0,0,0,.18,7.46c.36,3.06,1.88,5.33,4.91,6.26s5.45-.49,7.31-2.92c1.08-1.41,1.69-3.31,3.78-3.7s3.81.4,5.2,2c3,3.42,5.88,7,8.83,10.49C474.59,469.39,475.43,471,474.14,472.87Z"/><path class="cls-9" d="M474.14,472.87c-4.11-6.15-9.14-11.54-14.1-17-.33-.22-.44-.45-.35-.69s.19-.37.29-.37q0-21.94.08-43.89a8.18,8.18,0,0,1,4.7-2.54c25.44-6.4,42.2-21.9,49.38-47.35a8.78,8.78,0,0,1,2.81-4q19.14,0,38.28-.07c2.33,0,4.65.08,6.84-.91q0,51.24-.07,102.48C562,469,558,473,547.48,473H475Z"/><path class="cls-13" d="M468,340.94c2.78,8.67.76,16.89-5.28,21.54-7.06,5.43-15.14,5.86-22.2,1.21C433,358.71,430.65,352,433,342c.5-6.52,7.52-13.39,14.74-14.42a19.19,19.19,0,0,1,20.51,11.56A1.77,1.77,0,0,1,468,340.94Z"/><path class="cls-14" d="M514,336l-15,0c-2.72-1.12-3-3.86-3.8-6.1-5.59-15.2-15.86-25.43-31.49-30a8,8,0,0,1-4.52-2.8q0-7.5-.05-15c1.71-2.09,3.9-2.17,6.34-1.73,22.53,4.06,45,25.88,49.46,48.18C515.38,331,516.46,333.75,514,336Z"/><path class="cls-14" d="M440.89,282l0,15.05c-.69,2-2.33,2.58-4.13,3.19-16,5.41-25.93,16.57-30.8,32.53-.51,1.69-.49,3.73-2.63,4.48a85.56,85.56,0,0,1-14.67-.09c-2.53-1.45-2.33-3.75-1.9-6.12,2.73-14.8,10.31-26.78,21.49-36.6a62.41,62.41,0,0,1,24.32-13.15C435.27,280.53,438.34,279.14,440.89,282Z"/><path class="cls-14" d="M497.91,357.15l15.05-.06c2.31,2.17,1.24,4.69.46,7q-12,35-47.9,44.2c-2.07.53-4,.57-5.42-1.31q0-7.5,0-15c1.32-1.88,3.28-2.63,5.38-3.32,13.8-4.52,23.09-13.89,28.72-27.07C495.06,359.64,495.82,357.9,497.91,357.15Z"/><path class="cls-14" d="M389,357.1l15.06,0c2.08.72,2.9,2.46,3.68,4.35,5.59,13.34,15.07,22.62,28.9,27.19a7.37,7.37,0,0,1,4.16,3.24l.05,15c-1.52,1.89-3.4,1.49-5.44,1.05-11.91-2.54-21.49-9.17-30.35-17.09-1.48-1.33-2.82-2.81-4.34-4.11a123.78,123.78,0,0,1-11.18-19.93C388.3,363.86,386.19,360.51,389,357.1Z"/><path class="cls-4" d="M514,336c-4.4-27.25-22.61-47.26-48.48-53.37a24.44,24.44,0,0,0-6.42-.59l0-13c13.36.63,24.89,6.31,34.77,14.59,16.09,13.48,24.63,31,24.2,52.36Z"/><path class="cls-4" d="M440.89,282c-17.79,2.5-31.48,11.58-41.9,26a61.7,61.7,0,0,0-11,28,2.61,2.61,0,0,1-4,0c-1-33.66,24.81-62.41,57-66.94Q440.9,275.53,440.89,282Z"/><path class="cls-9" d="M494,333a2.76,2.76,0,0,1-3.13,3c-3.64,0-7.28,0-10.91,0-2.63,0-3-2.13-4-3.8-4-6.7-9-12.22-17-14.12l.09-17.22c1.63-1.8,3.55-1.4,5.52-.78,14.18,4.49,23.82,13.89,29.6,27.41C495,329.25,495.9,331.21,494,333Z"/><path class="cls-9" d="M440.93,300.9l0,17.19a7.79,7.79,0,0,1-3.31,3.49c-5.42,2.59-9.07,7.09-11.76,12.27-1.43,2.73-3.21,3.89-6.24,3.68-2.79-.2-5.61-.09-8.41,0-2.19,0-3.91-.55-4.61-2.85-.53-6.58,3-11.68,6.42-16.67a43.79,43.79,0,0,1,22.35-17.25C437.23,300.08,439.12,299.22,440.93,300.9Z"/><path class="cls-15" d="M376.07,356.92q-15.39,0-30.79.07a12.62,12.62,0,0,1-5.33-.94c-3.95-2.69-6.16-6.23-4.34-11,1.75-4.61,5.5-6.24,10.33-6.08s9.95,0,14.92,0A.81.81,0,0,1,362,339C365.71,345.73,372,350.48,376.07,356.92Z"/><path class="cls-9" d="M460.11,388.11c0-1.49,0-3-.13-4.47-.7-5.91.25-10.45,6.89-12.86,4.22-1.53,6.74-5.84,8.62-9.94,1.4-3,3.41-4.08,6.63-3.9,4,.22,7.95.08,11.93.09,1.21,1.75.75,3.52,0,5.23-5.87,12.88-15.13,22.09-28.81,26.5C463.41,389.34,461.63,389.71,460.11,388.11Z"/><path class="cls-9" d="M408,357c1.33,0,2.66,0,4,0,6.79-.38,13.44-1,16.46,7.55.88,2.51,3.78,4.9,6.34,6.11,5.63,2.65,7.06,6.82,6.29,12.46a43.37,43.37,0,0,0-.11,5c-1.43,1.35-3,1.05-4.66.49-13.72-4.7-23-14-28.59-27.27A4.31,4.31,0,0,1,408,357Z"/><path class="cls-15" d="M460,454.83l.06,1.06c-.59,1.17-1.16,2.36-1.78,3.51-2.19,4-5.47,6.44-10.13,5.29a8.72,8.72,0,0,1-7.09-9c-.06-7.28,0-14.56.09-21.83,5.82,5.44,10.43,12,15.69,17.9C457.8,452.87,458.53,454.2,460,454.83Z"/><path class="cls-4" d="M460.1,407c19.7-2.36,34.39-12.55,44.85-29.06,4-6.35,7.12-13.19,8-20.8l4,0c-4.3,27.49-29.94,51.78-56.89,53.88C460.08,409.61,460.09,408.28,460.1,407Z"/><path class="cls-9" d="M441,433l-26-31c1.42-1.55,3-1.05,4.5-.24a61.26,61.26,0,0,0,17.91,6.71c1.61.31,2.5,1.46,3.54,2.48Z"/><path class="cls-16" d="M362,339l-1.14-.07L359,336l25,0h20c1.2-.87,1.8-2.89,3.9-2,4.42,3.95,15.18,2.76,17.86-2.08,3.5-6.33,8.35-11.08,15.13-13.76a4.34,4.34,0,0,1-2.78,5.14A25,25,0,0,0,426,335.35c-1.39,2.93-3.16,3.7-6.16,3.69C400.58,338.94,381.29,339,362,339Z"/><path class="cls-17" d="M494,333c-5.35-17.54-16.62-28.63-34.88-32.15,0-1.27,0-2.53,0-3.8,19.91,3.69,32.32,15.72,38.55,34.63.47,1.42.84,2.86,1.26,4.3C496.39,336.46,495.1,334.9,494,333Z"/><path class="cls-17" d="M407.91,333.93c-1,1.23-2.15,2.22-3.9,2,.4-9.08,4.86-16.32,10.51-23a48.27,48.27,0,0,1,26.33-15.9c0,1.28,0,2.56.08,3.83C423.73,305.72,412.27,316.28,407.91,333.93Z"/><path class="cls-17" d="M460.11,388.11c17.43-3.68,28-14.8,33.94-31.08l3.86.12c-5.65,17.23-16.9,28.82-34.38,34.13a32.21,32.21,0,0,1-3.39.66Z"/><path class="cls-17" d="M408,357c5.68,16,16.29,26.74,33,31,0,1.29-.05,2.58-.08,3.86-18.69-4.78-30.67-16.67-36.75-34.78Z"/><path class="cls-4" d="M440.92,410.93c-9.4-.8-17.45-5.51-25.95-8.95l-4-4c-3.71-3.37-8-6.29-9.5-11.47L402,386c7,6.3,14.1,12.45,22.8,16.38,5.13,2.32,10.39,4.22,16.09,4.58Z"/><path class="cls-18" d="M468,340.94c-3.21-8.06-9.59-11.61-17.83-11.83C443,328.91,435.65,334.7,433,342c-.9-5.37,3.82-12.59,10.46-14.84,9.45-3.21,19.53-.9,24.26,9.26C468.37,337.85,469.49,339.3,468,340.94Z"/><path class="cls-4" d="M389,357.1c1.22,9.39,5.8,17.34,10.83,25.09.79,1.23,2,2.21,2.13,3.8l0,0c-2.12,1-2.8-.93-3.89-2-2.5-2.36-4.05-5.42-6.06-8.15-.18-2.13-2.16-3.15-3-4.86a44.06,44.06,0,0,1-4.35-7.17c-1.19-2.27-1.86-4.67.4-6.81Z"/><path class="cls-16" d="M441.94,237.9c-1.72-3.92,1.2-5.79,3.65-7.55a7.23,7.23,0,0,1,8.82,0c2.45,1.76,5.37,3.63,3.65,7.54C452.43,231.16,447.56,231.16,441.94,237.9Z"/><path class="cls-19" d="M385.05,357.06c.35,4.93,2.52,9.35,3.95,14a93.84,93.84,0,0,1-12.07-14Z"/><path class="cls-20" d="M340.1,314.87c6.72,6.4,12.38,13.69,18,21-4.66,0-9.32,0-14,.1-3,.08-4.21-1.19-4.15-4.16C340.11,326.19,340.07,320.53,340.1,314.87Z"/><path class="cls-2" d="M392,375.9c4,2.72,5.72,7.65,9.95,10.11,2.13,4.66,6.3,7.79,9.06,12A49,49,0,0,1,392,375.9Z"/></svg>