<svg id="Layer_1" data-name="Layer 1" xmlns="http://www.w3.org/2000/svg" viewBox="0 0 900 650"><defs><style>.cls-1{fill:#334d5c;}.cls-2{fill:#eec74a;}.cls-3{fill:#d6b341;}.cls-4{fill:#4e6f7c;}.cls-5{fill:#152730;}.cls-6{fill:#4e6f7b;}.cls-7{fill:#edc74a;}.cls-8{fill:#99c9e1;}.cls-9{fill:#99c8e0;}.cls-10{fill:#98c8e0;}.cls-11{fill:#1f93af;}.cls-12{fill:#95c4db;}.cls-13{fill:#1c3d49;}.cls-14{fill:#203843;}.cls-15{fill:#9a7713;}.cls-16{fill:#fbf2d8;}.cls-17{fill:#c59f36;}.cls-18{fill:#9c7814;}.cls-19{fill:#fbf2d7;}.cls-20{fill:#1f95b1;}</style></defs><title>submarine</title><path class="cls-1" d="M451.2,70c141.48-.64,259,116.6,255.89,261.82-3,139.14-118.7,253.41-262,250.27C305.91,579,191.4,463.2,194.94,319.42,198.34,181,312.4,69.29,451.2,70Z"/><path class="cls-2" d="M259,329c12.33-25.72,32.79-41.26,60.25-47.92,13.12-3.18,26.51-1.78,39.8-2,1.59-2.15,4-2.24,6.3-2.25q51.33-.18,102.68,0a12,12,0,0,1,7,2.27c19.29.33,38.62-1.07,57.82,2,28.19,4.49,54,14.31,75.31,33.89,6.51,6,12.27,12.65,16,20.8,2.85,9.15,3.26,18.11-2.1,26.61-1.7,2.1-4.14,1.86-6.44,1.9-8,.15-16,0-24,.13-1.32,0-3.3-.94-3.75,1.44a19.83,19.83,0,0,0,8.81,1.73c5.16,0,10.32-.06,15.48,0,5.88.09,7.52,2.8,4.5,7.93a76.6,76.6,0,0,1-15.48,18.82c-23.58,20.71-51.74,29.94-82.43,33.09a260.43,260.43,0,0,1-26.92.88q-74.19.06-148.38,0c-19.74,0-37.85-5.63-53.34-18.06-19.56-15.69-31.25-35.78-33.68-61.19C255.8,341.88,257.44,335.54,259,329Z"/><path class="cls-3" d="M259,329c-1.26,14.22-.7,28.28,4.78,41.66,12.6,30.84,35.12,49.33,68.33,54.46a112.93,112.93,0,0,0,17.42.88q75.47,0,151,0c24.6,0,48.4-4.31,70.76-14.76,17.44-8.15,32.54-19.43,43-36.08,1-1.61,3-3.37,1.75-5.32-1-1.63-3.4-.78-5.17-.79-7.17-.07-14.33,0-21.5,0-1.81,0-3.68.26-5.33-.84,1.22-2.75,3.79-2.31,6-2.35,9.57-.16,19.14,0,28.71-.1,1.74,0,3.59.45,5.29-.66-.63-1.45-2.69-1.44-3-3.1,3-8.51,3.24-17.36,3.18-26.25,11.62,20.31,11.68,41,1,61.5C613.48,419.77,593.79,433.41,571,443c-23.91,10-49,12.65-74.78,12.33q-76-.94-152,0c-25.85.38-48.14-6.8-67-24.42C249.76,405.38,241.61,359.71,259,329Z"/><path class="cls-2" d="M359.87,218.76c.8-3.47,3.21-4.89,6.53-4.89q39.39,0,78.78,0c3.15,0,5.54,1.34,6.65,4.31,6.45,17.24,12.82,34.51,19.23,51.78-.1,2.44-1.89,2.85-3.77,3.1a48.29,48.29,0,0,1-6.47.26H370.09c-1.17,0-2.33,0-3.49,0-6.56-.24-7.09-.78-7.1-7.21q0-21.19,0-42.37C359.52,222,359.2,220.36,359.87,218.76Z"/><path class="cls-4" d="M278,175.57A25.34,25.34,0,0,1,303.67,150c12.42,0,25.37,8.47,26,26.07.47,13.52-12.42,25.66-26.15,25.62C289.47,201.64,278,189.9,278,175.57Z"/><path class="cls-3" d="M359.87,218.76c.08,15.47.32,30.94.13,46.4-.05,4.63,1.43,6,6,5.94,33.11-.16,66.22-.08,99.33-.1,2,0,4,.38,5.75-1.05L475,279H359c.09-16,.14-31.91.32-47.87C359.41,227,358.76,222.85,359.87,218.76Z"/><path class="cls-5" d="M370.05,160.05c3.16,0,6.32-.15,9.47,0,11.46.58,19,7.91,19.38,19.35.33,9.8,0,19.61.14,29.42,0,3.37-1.49,4.19-4.55,4.26-8.39.18-8.39.29-8.39-7.88s0-16.3,0-24.44c-.06-5.9-1.92-7.71-7.78-7.85-2.33-.06-4.66.06-7-.06-1.8-.1-.58-1-.28-1.56,1.29-3.59,1.29-7-1.47-10A1.62,1.62,0,0,1,370.05,160.05Z"/><path class="cls-6" d="M325.89,209a15.07,15.07,0,0,1,15.44,15.4,15.62,15.62,0,0,1-16,15.57c-7.91-.13-15.31-7.73-15.21-15.61A15.76,15.76,0,0,1,325.89,209Z"/><path class="cls-7" d="M641.16,397.73c0,7,0,14,0,21,0,1.06.6,2.57-.83,3.08s-2.39-.84-3.17-1.87a20.59,20.59,0,0,1-3.31-7.74,58.26,58.26,0,0,1,.34-30.12,31.61,31.61,0,0,1,2.6-5.91c.69-1.36,1.86-3,3.3-2.72,2,.35,1,2.48,1.06,3.79C641.22,384.07,641.17,390.9,641.16,397.73Z"/><path class="cls-7" d="M641.17,333.42c0,7,0,13.94,0,20.9,0,1.18.77,3-1,3.4-1.41.35-2.28-1.09-3.08-2.12a18.52,18.52,0,0,1-3-6.77,58.44,58.44,0,0,1,.23-31.43,23.21,23.21,0,0,1,2.74-5.81c.72-1.17,1.72-2.91,3.42-2.17,1.4.6.69,2.37.7,3.6C641.2,319.82,641.17,326.62,641.17,333.42Z"/><path class="cls-8" d="M687.78,373.7a9.83,9.83,0,0,1-9.36,9.74,9.61,9.61,0,0,1-9.86-9.14,9.8,9.8,0,0,1,9.5-10.08A10.07,10.07,0,0,1,687.78,373.7Z"/><path class="cls-9" d="M663.06,364a39.15,39.15,0,0,1-2.29-3.75,7.24,7.24,0,0,1,10.6-9,6.78,6.78,0,0,1,2.75,8.32c-1.09,3.38-3.69,5-7.25,4.88a37,37,0,0,1-3.91-.51Z"/><path class="cls-10" d="M663,363.94c.33.91.69,1.81,1,2.73,1.06,3.06.33,5.57-2.42,7.35a5.31,5.31,0,0,1-6.87-.62,5.6,5.6,0,0,1-1.22-7.26,5.54,5.54,0,0,1,6.77-2.85l2.84.75Z"/><path class="cls-11" d="M370,160.84c6.08,2.93,6.43,6.63,1,10.46-2.2-.51-5,.5-6.28-2.37-1.68-1.42-1.55-3.12-.79-4.92l1.11-1.31C366.31,161,367.79,159.86,370,160.84Z"/><path class="cls-12" d="M652.79,361.86c-.5,2.46-1.9,4.05-4.38,3.84s-3.75-1.82-3.54-4.4c.19-2.41,1.59-3.46,3.91-3.44C651.46,357.89,652.46,359.57,652.79,361.86Z"/><path class="cls-13" d="M370,160.84c-1.87,0-3.4,1-5,1.86.62-2.84,2.81-2.73,5-2.65C370,160.32,370,160.58,370,160.84Z"/><path class="cls-14" d="M364,164c.26,1.64.53,3.28.79,4.92C362.24,167.65,362.76,165.88,364,164Z"/><path class="cls-15" d="M507,394c-12.07-9.3-17.59-21.19-13.33-36.29,6.47-22.94,35.11-30.37,52.59-13.83,1.68,1.59,3.16,3.41,4.74,5.12,13.76,18.74,5.38,43.81-17.06,50.18C524.32,401.9,515.2,399.8,507,394Z"/><path class="cls-15" d="M417.05,393.93c-14.05-12-18.09-26.44-11.38-40.63A31.6,31.6,0,0,1,457,344.45c1.76,1.76,3.34,3.69,5,5.54,8.05,12.45,8.43,24.76-.33,37.14-9.53,13.48-27,16.31-40,9.66A25.21,25.21,0,0,1,417.05,393.93Z"/><path class="cls-15" d="M326.05,392.94C317.92,385.63,312.61,377,313,365.6a31.67,31.67,0,0,1,21-28.77c12.67-4.38,26.65-.74,34.92,9.13,1.38,1.65,2.7,3.37,4,5.06,8.67,14.27,6.34,30.76-5.84,41.44C355.36,402.78,339,403,326.05,392.94Z"/><path class="cls-16" d="M271.18,365.05c.78-38.61,34.44-72.25,72.09-72.06,2.34,0,4.75-.18,6.3,2.11a4.77,4.77,0,0,1,.29,5.2c-1.18,2.16-3.21,2.65-5.51,2.7a62.74,62.74,0,0,0-41.71,16.56c-13.72,12.37-20.46,28-21.44,46.23-.19,3.58-1,6.38-5.29,6.22C272.73,371.89,271.09,369.35,271.18,365.05Z"/><path class="cls-17" d="M507,394c8,4,16.46,5.56,25.14,3.37a31.49,31.49,0,0,0,21.22-42.9c-.76-1.84-1.57-3.65-2.36-5.47,9.21,8.73,10.92,19.49,7.69,31.13-3.33,12-11.74,19.14-23.71,21.73C524.43,404.14,514.94,401.55,507,394Z"/><path class="cls-17" d="M417.05,393.93a36.27,36.27,0,0,0,24.21,3.73c19-3.57,30.25-25.22,22.57-43-.65-1.52-1.22-3.08-1.82-4.63,11.48,11.73,10.91,32-1.23,43.69S428.36,405.56,417.05,393.93Z"/><path class="cls-17" d="M326.05,392.94c9.73,5.54,20,7.41,30.59,3.16,17-6.83,23.25-24.09,17.65-41.34-.41-1.25-.88-2.49-1.32-3.74,7.82,8.59,9,18.86,5.89,29.31C375.43,392,367.2,399.55,355,401.89,343.89,404,334,401.38,326.05,392.94Z"/><path class="cls-18" d="M621,361.94c1.15.05,2.31.11,3.46.14,2.4.07,5.13.22,5.1,3.32s-2.86,2.66-4.94,2.67c-8.26,0-16.52-.06-24.79-.05-5.28,0-10.57.08-15.85.13-1.56-1-2.54-2.31-1.59-4.14s3-1.87,4.8-1.89Z"/><path class="cls-15" d="M425,247h30c2.39,0,5-.08,5.12,3.24.1,3.55-2.54,3.75-5.21,3.75H394c-2.42,0-5-.05-5.09-3.32-.15-3.67,2.57-3.67,5.18-3.67Z"/><path class="cls-19" d="M364.91,245.05c0-6.31-.07-12.63,0-18.94.06-4,2-6.61,6-7.45,1.19-.26,2.47-.21,2.83,1.24.29,1.17-.54,1.83-1.62,2.09-3.81.95-4,3.93-4,7,0,11.63,0,23.27,0,34.9,0,1.47.83,4-1.54,4s-1.65-2.47-1.67-4c-.08-6.31,0-12.63,0-18.94Z"/><path class="cls-20" d="M524.2,341.87a24.84,24.84,0,1,1-25,25A24.8,24.8,0,0,1,524.2,341.87Z"/><path class="cls-20" d="M459.16,366.75a24.41,24.41,0,0,1-24.51,24.81,24.85,24.85,0,1,1,0-49.69A24.48,24.48,0,0,1,459.16,366.75Z"/><path class="cls-20" d="M320,366.71a24.52,24.52,0,0,1,25-24.84,24.84,24.84,0,0,1,0,49.68A24.49,24.49,0,0,1,320,366.71Z"/></svg>