<?xml version="1.0" encoding="utf-8"?>
<!-- Generator: Adobe Illustrator 23.0.3, SVG Export Plug-In . SVG Version: 6.00 Build 0)  -->
<svg version="1.1" id="Layer_1" xmlns="http://www.w3.org/2000/svg" xmlns:xlink="http://www.w3.org/1999/xlink" x="0px" y="0px"
	 viewBox="0 0 254 254" style="enable-background:new 0 0 254 254;" xml:space="preserve">
<style type="text/css">
	.st0{fill:#FFFFFF;}
	.st1{fill:#6FC4BD;}
	.st2{fill:#2D3E50;}
	.st3{fill:#EBC09F;}
	.st4{fill:#29636E;}
	.st5{fill:#EAC19B;}
	.st6{fill:#0D2C2C;}
	.st7{fill:#14474F;}
	.mustache{fill:#48270F; animation: wobble 6s ease-out infinite;}
	.st9{fill:#2F3430;}
	.pupils{fill:#F9FFFF; animation: look 6s cubic-bezier(.18,-0.22,.44,1.26) infinite alternate;}
	.st11{fill:#4C2910;}
	.st12{fill:#472913;}
	.st13{fill:#DFB500;}
	.st14{fill:#EEC92B;}
	.st15{fill:#EEC830;}
	.st16{fill:#EFD14F;}
	.st17{fill:#DCB725;}
    .eyes{animation: blink 6s ease-out 0.5s infinite;}
    .stripes{animation: wind 2s linear infinite forwards;}
    @keyframes wobble{
        0%{transform: rotate(0deg);transform-origin: 50% 40%;}
        3%{transform: rotate(4deg);transform-origin: 50% 40%;}
        6%{transform: rotate(-3deg);transform-origin: 50% 40%;}
        9%{transform: rotate(2deg);transform-origin: 50% 40%;}
        12%{transform: rotate(0deg);transform-origin: 50% 40%;}
        100%{transform: rotate(0deg);transform-origin: 50% 40%;}
    }
    @keyframes blink{
        0%{transform: scaleY(1); transform-origin: 50% 35%;}
        2%{transform: scaleY(0.5); transform-origin: 50% 35%;}
        4%{transform: scaleY(0.8); transform-origin: 50% 35%;}
        5%{transform: scaleY(0.1); transform-origin: 50% 35%;}
        7%{transform: scaleY(1); transform-origin: 50% 35%;}
    }
    @keyframes wind{
        0%{transform: translate3d(0,0,0)}
        100%{transform: translate3d(0, -4.4%, 0)}
    }
    @keyframes look{
        0%{transform: translate3d(0,0,0)}
        25%{transform: translate3d(0,0,0)}
        35%{transform: translate3d(-0.8%, 0, 0)}
        65%{transform: translate3d(-0.8%, 0, 0)}
        75%{transform: translate3d(0, 0.8%, 0)}
        100%{transform: translate3d(0, 0.8%, 0)}
    }
</style>
<circle class="st0" cx="127" cy="127" r="117"/>
<g class="stripes">
	
		<rect x="110.4" y="144.2" transform="matrix(0.7797 -0.6262 0.6262 0.7797 -63.4429 111.6996)" class="st1" width="33.1" height="3.5"/>
	
		<rect x="110.4" y="155.2" transform="matrix(0.7797 -0.6262 0.6262 0.7797 -70.3312 114.1234)" class="st1" width="33.1" height="3.5"/>
	
		<rect x="110.4" y="133.2" transform="matrix(0.7797 -0.6262 0.6262 0.7797 -56.5545 109.2758)" class="st1" width="33.1" height="3.5"/>
	
		<rect x="110.4" y="166.2" transform="matrix(0.7797 -0.6262 0.6262 0.7797 -77.2195 116.5473)" class="st1" width="33.1" height="3.5"/>
	
		<rect x="110.4" y="177.2" transform="matrix(0.7797 -0.6262 0.6262 0.7797 -84.1079 118.9711)" class="st1" width="33.1" height="3.5"/>
	
		<rect x="110.4" y="188.2" transform="matrix(0.7797 -0.6262 0.6262 0.7797 -90.9962 121.3949)" class="st1" width="33.1" height="3.5"/>
	
		<rect x="110.4" y="199.2" transform="matrix(0.7797 -0.6262 0.6262 0.7797 -97.8845 123.8187)" class="st1" width="33.1" height="3.5"/>
	
		<rect x="110.4" y="210.2" transform="matrix(0.7797 -0.6262 0.6262 0.7797 -104.7729 126.2425)" class="st1" width="33.1" height="3.5"/>
	
		<rect x="110.4" y="221.2" transform="matrix(0.7797 -0.6262 0.6262 0.7797 -111.6612 128.6664)" class="st1" width="33.1" height="3.5"/>
</g>
<g>
	<path class="st2" d="M127,6.2C60.3,6.2,6.2,60.3,6.2,127S60.3,247.8,127,247.8S247.8,193.7,247.8,127S193.7,6.2,127,6.2z
		 M115.2,201.1L115,201l8.3-63.8c0,0,0.1,0.1,0.2,0.1c0,0,0.1,0.1,0.2,0.1c0.4,0.3,0.8,0.5,1.2,0.6c0.1,0.1,0.3,0.1,0.4,0.1
		c0,0,0.1,0,0.1,0c0.2,0.1,0.3,0.1,0.5,0.1c0.2,0,0.4,0.1,0.6,0.1c0.1,0,0.3,0,0.4,0c0.1,0,0.1,0,0.2,0c0.2,0,0.4,0,0.7,0
		c0.2,0,0.3,0,0.5-0.1c0,0,0,0,0,0c0.2,0,0.3-0.1,0.4-0.1c0.2,0,0.4-0.1,0.6-0.2c0.1,0,0.3-0.1,0.4-0.2c0.1-0.1,0.3-0.1,0.4-0.2
		c0.1-0.1,0.2-0.2,0.4-0.2l8.3,63.6l-0.2,0.2l-11.6,10.6v0.1l0,0L115.2,201.1z"/>
	<path class="st3" d="M163.3,85.3v0.3c-0.2,19.9-16.3,36-36.3,36c-20.1,0-36.3-16.3-36.3-36.3v0c0-5.1,1.1-10,3-14.4h0
		C99.2,58,112.1,49,127,49c14.7,0,27.3,8.7,33,21.2v0C162.1,74.8,163.3,79.9,163.3,85.3z"/>
	<path class="st4" d="M170.2,199.4l-5.3-57.9c-0.8-8.6-8.2-15.3-16.6-15.3h-39.8c-8.4,0-16,6.7-17.1,15.3l-6.9,57.9
		c-0.1,0.6-0.1,1.1-0.2,1.7c-0.6,11.7,6.7,21.3,17,21.3h51.4c10.3,0,17.9-9.7,17.6-21.3C170.3,200.5,170.2,200,170.2,199.4z
		 M126.8,211.7L126.8,211.7L126.8,211.7l-11.7-10.6L115,201l8.3-63.8c0,0,0.1,0.1,0.2,0.1c0,0,0.1,0.1,0.2,0.1
		c0.4,0.3,0.8,0.5,1.2,0.6c0.1,0.1,0.3,0.1,0.4,0.1c0,0,0.1,0,0.1,0c0.2,0.1,0.3,0.1,0.5,0.1c0.2,0,0.4,0.1,0.6,0.1
		c0.1,0,0.3,0,0.4,0c0.1,0,0.1,0,0.2,0c0.2,0,0.4,0,0.7,0c0.2,0,0.3,0,0.5-0.1c0,0,0,0,0,0c0.2,0,0.3-0.1,0.4-0.1
		c0.2,0,0.4-0.1,0.6-0.2c0.1,0,0.3-0.1,0.4-0.2c0.1-0.1,0.3-0.1,0.4-0.2c0.1-0.1,0.2-0.2,0.4-0.2l8.3,63.6l-0.2,0.2L126.8,211.7z"/>
	<path class="st5" d="M170.3,201.1c0.3,11.7-7.3,21.3-17.6,21.3h-51.4c-10.3,0-17.6-9.7-17-21.3h30.8l11.6,10.6l0,0v-0.1l11.6-10.6
		H170.3z"/>
	<path class="st6" d="M149.3,201.1l-10.3-75h-23.5l-11,75l-3.1,21.3h50.9L149.3,201.1z M126.8,211.7L126.8,211.7L126.8,211.7
		l-11.7-10.6L115,201l8.3-63.8c0,0,0.1,0.1,0.2,0.1c0,0,0.1,0.1,0.2,0.1c0.4,0.3,0.8,0.5,1.2,0.6c0.1,0.1,0.3,0.1,0.4,0.1
		c0,0,0.1,0,0.1,0c0.2,0.1,0.3,0.1,0.5,0.1c0.2,0,0.4,0.1,0.6,0.1c0.1,0,0.3,0,0.4,0c0.1,0,0.1,0,0.2,0c0.2,0,0.4,0,0.7,0
		c0.2,0,0.3,0,0.5-0.1c0,0,0,0,0,0c0.2,0,0.3-0.1,0.4-0.1c0.2,0,0.4-0.1,0.6-0.2c0.1,0,0.3-0.1,0.4-0.2c0.1-0.1,0.3-0.1,0.4-0.2
		c0.1-0.1,0.2-0.2,0.4-0.2l8.3,63.6l-0.2,0.2L126.8,211.7z"/>
	<path class="st7" d="M152.2,222.5h-25.4v-10.7l0,0v-0.1l11.6-10.6l0.2-0.2l-8.3-63.6c-0.1,0.1-0.2,0.2-0.4,0.2
		c-0.1,0.1-0.2,0.1-0.4,0.2c-0.1,0.1-0.2,0.1-0.4,0.2c-0.2,0.1-0.4,0.1-0.6,0.2c-0.1,0.1-0.3,0.1-0.4,0.1c0,0,0,0,0,0
		c-0.2,0-0.3,0.1-0.5,0.1c-0.2,0-0.4,0-0.7,0c-0.1,0-0.1,0-0.2,0v-12.3H139l10.3,75L152.2,222.5z"/>
	<path class="mustache" d="M144.3,98.6c-1.9-0.1-2.6,2.6-2.6,2.6s2.5-2,2.5,0.7s-2.7,3.4-4.2,3.4c-3.5,0.1-3.5-6.8-10-6.8
		c-1.4-0.1-2.4,1-3,1.8c-0.6-0.8-1.6-1.9-3-1.8c-6.5,0-6.5,6.9-10,6.8c-1.5,0-4.2-0.7-4.2-3.4s2.5-0.7,2.5-0.7s-0.7-2.7-2.6-2.6
		c-1.7,0.4-2.5,1.8-2.5,3.3s2.1,8.7,10.7,8.7c5.5,0,8-2.2,9-3.9c1.1,1.6,3.5,3.9,9,3.9c8.6,0,10.7-7.2,10.7-8.7S146,99,144.3,98.6z"
		/>
	<g class="eyes">
		<g>
			<circle class="st9" cx="137.5" cy="90.8" r="5.5"/>
			<circle class="pupils" cx="138.8" cy="89.4" r="2.4"/>
		</g>
		<g>
			<circle class="st9" cx="116.5" cy="90.8" r="5.5"/>
			<circle class="pupils" cx="117.8" cy="89.4" r="2.4"/>
		</g>
	</g>
	<path class="st11" d="M122,76.5c-12.6,7.5-26.1,8.7-31.3,8.9c0-5.1,1.1-10,3-14.4h0l12.6-1.7l11.5-1C117.8,68.3,138,66.9,122,76.5z
		"/>
	<path class="st12" d="M163.3,85.3v0.3c-3.1-2.2-9.3-6.9-15.6-12.4c-8.9-7.7,7-5,7-5l5.3,2v0C162.1,74.8,163.3,79.9,163.3,85.3z"/>
	<g>
		<path class="st13" d="M129.5,32.1H127v39.8h29.3c0.5,0,1-0.4,1-1V59.9C157.3,44.5,144.8,32.1,129.5,32.1z"/>
		<path class="st14" d="M124.5,32.1c-15.3,0-27.7,12.4-27.7,27.7v11.1c0,0.5,0.4,1,1,1H127V32.1H124.5z"/>
	</g>
	<g>
		<path class="st15" d="M135.9,54.8c0,4.7-0.5,9-1.2,12.8c-2.3,0.1-4.8,0.2-7.2,0.2H127V29.9C131.9,29.9,135.9,41,135.9,54.8z"/>
		<path class="st16" d="M127,29.9v37.9c-2.6,0-5.2-0.1-7.6-0.2c-0.8-3.7-1.2-8.1-1.2-12.7C118.1,41,122.1,29.9,127,29.9z"/>
	</g>
	<path class="st17" d="M127.4,66.7c-21.3,0-38.6-4.3-38.6,2.4c0,4.3,17.3,7.7,38.6,7.7s38.6-3.5,38.6-7.7
		C165.9,62.5,148.6,66.7,127.4,66.7z"/>
	<path class="st1" d="M132.7,132.7c0,1.9-1,3.6-2.4,4.7c-0.1,0.1-0.2,0.2-0.4,0.2c-0.1,0.1-0.2,0.1-0.4,0.2
		c-0.1,0.1-0.2,0.1-0.4,0.2c-0.2,0.1-0.4,0.1-0.6,0.2c-0.1,0.1-0.3,0.1-0.4,0.1c0,0,0,0,0,0c-0.2,0-0.3,0.1-0.5,0.1
		c-0.2,0-0.4,0-0.7,0c-0.1,0-0.1,0-0.2,0c-0.1,0-0.3,0-0.4,0c-0.2,0-0.4,0-0.6-0.1c-0.2,0-0.4-0.1-0.5-0.1c0,0-0.1,0-0.1,0
		c-0.1,0-0.3-0.1-0.4-0.1c-0.4-0.2-0.8-0.4-1.2-0.6c-0.1,0-0.1-0.1-0.2-0.1c-0.1,0-0.1-0.1-0.2-0.1c-1.3-1.1-2.1-2.6-2.1-4.4
		c0-3.1,2.5-5.6,5.5-5.7c0.1,0,0.1,0,0.2,0C130.2,127,132.7,129.6,132.7,132.7z"/>
</g>
<path d="M123.5,137.3c-0.1,0-0.1-0.1-0.2-0.1v0C123.4,137.2,123.5,137.2,123.5,137.3z"/>
</svg>
