<svg id="Layer_1" data-name="Layer 1" xmlns="http://www.w3.org/2000/svg" viewBox="0 0 900 650"><defs><style>.cls-1{fill:#236d58;}.cls-2{fill:#45b29b;}.cls-3{fill:#216854;}.cls-4{fill:#308b74;}.cls-5{fill:#134435;}.cls-6{fill:#389a82;}.cls-7{fill:#4c2e0b;}.cls-8{fill:#985f1a;}.cls-9{fill:#e1b178;}.cls-10{fill:#fefefe;}.cls-11{fill:#fdfdfd;}.cls-12{fill:#4d2f0b;}.cls-13{fill:#d7d7d7;}.cls-14{fill:#331d07;}.cls-15{fill:#985e1a;}.cls-16{fill:#4b2e0b;}.cls-17{fill:#714612;}.cls-18{fill:#714512;}.cls-19{fill:#7e5220;}.cls-20{fill:#b97e3d;}.cls-21{fill:#995f1a;}.cls-22{fill:#975e1a;}.cls-23{fill:#b67b3a;}.cls-24{fill:#b87d3c;}.cls-25{fill:#805321;}.cls-26{fill:#b97e3e;}.cls-27{fill:#825624;}.cls-28{fill:#825523;}.cls-29{fill:#b27837;}.cls-30{fill:#b87d3d;}</style></defs><title>woods</title><path class="cls-1" d="M228.88,453.15c-13.3-21.83-22-45.49-27.7-70.28a245.92,245.92,0,0,1-6-67.94c1.69-4.06,5.33-4.14,8.83-4.06,3.67.09,4.78-.81,4.15-4.92-3.95-26,12.21-49,37.76-54.36,6.55-1.37,6.37-1.36,6-8-1.57-26.91,14.48-49.87,39.13-57.89,7.32-2.39,15.44-3.86,23.39-1.24,2.66,7.24,2.66,7.25,11.23,7.24,6.62,0,13.23.08,19.84,0,5.33-.09,6.07-1.38,4-6.4-.7-1.65-1.93-3.12-1.92-5.05.41-4,2.83-7.06,5.41-9.87,21.38-23.26,58.21-26.3,83-6.8a68.07,68.07,0,0,1,11.27,11.3c2.3,2.91,4.21,3,7.14,1.13a66.65,66.65,0,0,1,36.1-10c29.82.12,55.22,16.7,66.69,44.7A66.47,66.47,0,0,1,562.19,236c0,3.11.51,5.63,4.23,6.19a52.48,52.48,0,0,1,26.78,12.38c9.78,8.43,16.33,18.74,18.5,31.65.69,4.15.49,8.31.48,12.46,0,3.45,1.18,5.35,4.73,6.5,21.54,7,34.76,26.93,29.26,52.45-1.18,5.46-1.26,5.44,4.14,7.24,16.19,5.42,27.41,15.92,32.93,32.24.81,2.39,1.42,4.81.43,7.31a5.7,5.7,0,0,1-3.53,2.59,49.48,49.48,0,0,0-14.74,7.15c-4.48,3-7,1.67-7.6-3.77-3.4-29.9-26-48.89-55.85-46.78a7.65,7.65,0,0,1-3.89-.48,4.29,4.29,0,0,1-2.26-2.57c-2.55-9.12-10.07-14.35-16.48-20.18-6-5.48-12-11.05-18-16.54C548.47,312,535.85,300,522.79,288.39c-4.59-4.07-8.48-8.81-12.87-13.08-10.95-10.68-22.2-21.06-33.74-31-6.12-5.3-11.73-11.25-18.38-16s-13-4.69-19.75.16c-6.52,4.7-11.55,11-17.77,16-7.07,5.75-14.26,11.41-20.48,18.16-1,1.09-2.21,2.27-3.89,1.41-1.48-.75-1.88-2.23-2-3.79-.25-3.33.13-6.68-.28-10-.46-3.65-.89-7.52-5.82-8-3-.34-3.86,3.84-6.94,3.38-2.84-.25-4-3.55-6.85-3.76-2.78.07-4.24,3.39-7.24,2.93-2.79-.2-4.62-3.6-7.86-2.3-3.37,2.27-3.62,5.74-3.63,9.3-.06,13.64,0,27.28,0,40.91a43.75,43.75,0,0,1-.69,8.93c.23,2.77-1.33,4.69-3.17,6.45q-17.32,16.44-35.09,32.39a117.62,117.62,0,0,0-12,12c-5.55,6.62-4.17,13.51.09,20.25,1.29,2,4.06,2.81,4.66,5.45.34,1.38-.31,2.59-.64,3.87-1.62,6.38.09,10.88,5.53,14.65,4.56,3.17,4.56,4.16,0,7.34-8.2,5.71-8.2,15.66,0,21.66,4.54,3.33,4.52,4.39-.14,7.34-5,3.17-7,8.48-5.21,14.64.75,2.55.76,4.55-1.77,6a13.68,13.68,0,0,1-4.44.55c-22.4.14-44.81.08-67.21.05A19.73,19.73,0,0,1,228.88,453.15Z"/><path class="cls-2" d="M221.85,212c7.93-17.38,18.46-33.14,30.59-47.8,40.56-49,92-80,154.82-90.39,76.61-12.71,145.93,5.32,206.25,54.46,49.17,40.06,78.81,92.1,90,154.54C706,297,707.54,311.44,706.8,326a5.2,5.2,0,0,1-4.77,2.16c-6.23-.15-12.18,1.21-18.09,3.08-4.81,1.51-6.62.56-8.25-4.28-4.3-12.72-13.06-20.46-25.92-23.87-5.62-1.48-6.7-2.83-7-8.14-.71-13.66-7.36-23.63-19.31-29.82-4.11-2.13-6.35-4.66-7.29-9.18-4-19.3-18.27-28.92-38.45-29.18-6.38-2-8.07-4-7.92-10.82.24-10.36-2.26-19.84-8.23-28.27-9.62-13.62-23.16-19.56-39.54-19-4.28.15-6.95-1.7-9.48-4.42a48.62,48.62,0,0,0-29-15.43,50.12,50.12,0,0,0-26.88,3.38c-5.63,2.27-7.66,1.81-11.07-3-16-22.59-43-31-68.51-23.69-15.94,4.55-28.51,14.16-36.41,29.17-1.32,2.5-2.51,5.07-3.83,7.58-2.61,5-4.27,5.64-9,2.77a55.85,55.85,0,0,0-22.37-8c-20.15-2.5-36.12,4.9-48.64,20.44-6.59,8.17-9.46,17.81-10.73,28.08-.66,5.39-1.94,6.55-7.43,6.6-4.19,0-8.24,1.11-12.41,1.16C224.68,213.31,223,213.69,221.85,212Z"/><path class="cls-3" d="M646.66,491.07c-23.1,27.87-51.15,49.43-83.59,65.3-39.88,19.52-82.16,27.76-126.4,25.4a251.41,251.41,0,0,1-108.13-30.71,33.72,33.72,0,0,1-2.87-1.95c1.79-3.18,4.95-2.32,7.62-2.34,19.16-.14,38.33,0,57.49-.08a51.83,51.83,0,0,0,9-.59c14.07-2.51,19.84-10.68,17.45-24.94-.36-2.15-1.09-4.27.77-6.11,1.52-1.3,3.41-1.27,5.21-1.27,19.57-.06,39.15-.42,58.72.18,28.34-.4,56.68-.64,85,.15a19.11,19.11,0,0,0,4.37-.6,20.1,20.1,0,0,1,5.85.58c8.06,1.34,16.43-8.16,11.86-18.06-1-2.11-3.17-4.28-.1-6.5a12.19,12.19,0,0,1,5.37-.79c15.25-.11,30.5-.14,45.76,0C642.41,488.78,645.13,488.34,646.66,491.07Z"/><path class="cls-4" d="M221.85,212c5.73-1,11.45-2.25,17.31-1.93,3.27.18,4.61-.86,4.92-4.43,2.13-24.48,16.64-42.51,40.06-49.43,15.94-4.71,31.05-1.92,44.89,7.05,3.26,2.11,4.27,2.07,5.82-1.68,9-21.74,24.93-35.79,48.28-39.68,26.38-4.38,48.3,4.09,64.26,26,2.57,3.53,4.4,4.18,8.45,2.32,18.59-8.52,42.17-4.75,55.73,10.36,6.06,6.74,12.9,5.31,19.66,6.23,23.43,3.19,40.86,22.58,40.69,46.22,0,5.32,0,10,6,12.07,11.15,5.17,14.24,15.33,16.06,26.19.3,1.79,0,3.7-2,4.7-8.54-6.45-18-10.82-28.7-11.9-3.44-.35-3.35-2.59-3.32-5,.29-17.17-4.86-32.52-15.83-45.72a66.52,66.52,0,0,0-45.38-24.43,67.37,67.37,0,0,0-46.45,11.24c-2.52,1.68-3.63.78-5.16-1.34-13-18-30.81-27-52.82-25.6-19.29,1.2-35,9.87-45.42,26.84-1.78,1-3.14,0-4.55-.93-5.43-3.52-11.16-4.91-17.47-2.54a6.57,6.57,0,0,1-5.32.09,19.84,19.84,0,0,1-3.79-4.52,17.2,17.2,0,0,0-15.94-7.42c-6.86.58-12.71,3.68-15.46,10.75-1.54,3.93-.89,5.1,3.44,5.22,6.63.18,13.26-.06,19.89.13,2.27.06,4.81-.17,5.73,2.79-.07.84-.39,1.45-1.37,1.41-24.54-1.09-43,9-54.34,30.77-5,9.54-7.2,20.07-4.86,31,1,4.51-.06,5.93-5.09,6.53-27.6,3.29-45.22,29.36-38.33,56.28,1,4,.32,4.66-3.57,3.73-4.32-1-8.6,0-12.69,1.61C196.76,278.71,205.12,244.24,221.85,212Z"/><path class="cls-5" d="M646.66,491.07l-58.68,0c-2.67,1.26-4.65-.62-6.24-2-2.49-2.14-.46-3.76,1.49-5,3.65-2.3,6.39-5.11,6.87-9.76a12.73,12.73,0,0,0-6-12.76c-4.63-3.1-4.85-4.14-.14-6.59,9.16-4.75,7.66-18.94-.31-22.54-4.33-2-4.09-3.79.15-6.45,9.1-5.72,8.85-16.75-.52-22.63-3.41-2.14-3.53-3.68-.47-5.84,7.92-5.57,9-8.89,5.92-18.05a5.11,5.11,0,0,1-.22-2.45c.3-1.91,1.88-2.91,3-4.23,1.4-2.35,2.9-4.64,3.55-7.37a4.27,4.27,0,0,1,3-3.51c30.11-4.69,55.62,13.27,61.57,43.12.59,3-1.35,7.38,1.65,8.61,2.22.9,4.75-3,7.33-4.46A52.37,52.37,0,0,1,683,403.94c3.81-2.88,7.68-2.95,11.82-.21-7.25,24.75-19,47.31-33.54,68.49A171,171,0,0,1,646.66,491.07Z"/><path class="cls-5" d="M418,516.1c2.45,6.4,3.3,13,.64,19.42-4.31,10.47-13.32,13.33-23.55,13.4-20.81.15-41.62.05-62.44.06-2.33,0-4.66.09-7,.13-16-8.24-30.26-18.94-43.76-30.72-4.48-3.9-9.09-7.71-12.87-12.35-1.9-2.73-1.07-5.36.37-7.9,5.91-10.51,14.8-16.21,27-16.3,3.86,0,7.66.2,10.11-3.6,1-.83,1.62-2.08,2.68-2.9A20.87,20.87,0,0,1,321.6,469c3.13-.35,6.21-.26,9.08,1.29a7.76,7.76,0,0,1,3.61,1.27,15.64,15.64,0,0,1,4,1.91c2.58,2.75,5.65,5.09,7.29,8.66.93,2,2.56,1.52,4.26,1.09a29.65,29.65,0,0,1,23,3.09c3.52,3.38,7.95,5.89,10.06,10.62a16,16,0,0,1,1.65,5.63c.29,2.44,1.21,3.43,4,2.74,5.43-1.35,10.87-2.52,16.59-.92a45.51,45.51,0,0,1,6.84,2.77C414.94,509.51,418.73,511.29,418,516.1Z"/><path class="cls-6" d="M694.84,403.73l-11.82.21c-3.1-12.33-9.07-22.77-19.7-30.21a44.88,44.88,0,0,0-17.71-7.66c-3.09-.57-4.24-1.28-3-4.83,9.33-26.94-7.33-50-28.71-54.49-3.34-.71-4.15-2.64-3.92-5.74a54.64,54.64,0,0,0-6.32-30.82c-3-5.54-7.87-9.4-11.65-14.23.58-12.69-6-22.14-14-30.89,22.71-1.81,39,14,41,32.95.23,2.16,1.44,3.09,3.25,3.92,14.43,6.65,22.59,17.63,22.74,33.85,0,2.93,1.28,4.09,3.94,4.71,15,3.48,25.24,12.14,29.27,27.37.55,2.07,1.65,2.65,3.69,1.76,8-3.48,16.4-4,24.95-3.64A228.93,228.93,0,0,1,694.84,403.73Z"/><path class="cls-3" d="M308,479.26c-1.46,4.07-3.9,5.29-8.56,4.93C284.06,483,272.8,491.41,269,506a224.85,224.85,0,0,1-40.16-52.89c1.85-1.59,4.1-1.13,6.23-1.13q36.5-.06,73-.06c4.08-.59,6,2.76,8.57,4.85a2,2,0,0,1-.51,3.4C307.75,464.17,307.53,471.55,308,479.26Z"/><path class="cls-7" d="M592.88,374.12l-3.13,3.06c-1.93.92-3-.68-4.39-1.46-6.88-3.93-11.05-3.55-16.92,1.83a7.27,7.27,0,0,1-4.84,2.05c-7,1.67-14,.1-21,.26-4.16-.35-8.31-.37-12.48-.37q-82.46,0-164.9,0c-6.32,0-12.64-.17-18.95.65a31.61,31.61,0,0,1-11.42-.52c-2.1,0-3.64-1-5.21-2.42-6.14-5.37-11.22-5.47-17.78-.53-1.18.89-2.13,2.2-3.87,1.3-1.64-1.21-3.58-2-4.75-3.83,0-2.66,1.93-4.17,3.64-5.69C320,356.79,332.6,344.42,346,332.94c4.65-4,8.55-8.78,13.08-13,11.37-10.48,22.64-21.07,34-31.56,13.56-12.52,27-25.14,40.64-37.59,8.77-8,20-7.9,28.84.19,8.34,7.63,17.06,14.92,24.85,23C497.84,285,509.16,295,520.05,305.4c10.17,9.75,21.38,18.36,31.68,28,5.09,4.78,10.17,9.57,15.32,14.28,8,7.29,16,14.51,23.69,22.16A6,6,0,0,1,592.88,374.12Z"/><path class="cls-8" d="M592.88,374.12c-7.4-5.2-13.43-11.94-20-18-33.71-31-67.19-62.18-100.75-93.31-3.54-3.28-7.11-6.52-10.67-9.79-8.4-7.71-18.1-8-26.42-.34-19.36,17.8-38.59,35.74-57.87,53.62Q342,338.89,306.8,371.45c-1.1,1-2.39,1.81-3.58,2.71-7-8.64-6.52-18.1,1.61-25.71,14.54-13.62,29.21-27.09,43.8-40.65,1.58-1.46,3-3.07,4.51-4.62,4.27-5.79,4.75-12.38,4.6-19.32-.27-11.91-.1-23.84-.06-35.76,0-2.82-.05-5.67,2.06-7.95,3.31-.32,5.49,1.43,7.25,3.95,2.54,1.41,2.18,3.93,2.21,6.19.16,9.14,0,18.29.11,27.43,0,1.72-.6,3.62,1,5.34,1.7-1.68,1.27-3.74,1.29-5.6.11-10.14,0-20.29.08-30.43,0-2.47-.2-5.06,2.05-6.89,3.6-.27,5.58,2,7.3,4.66,2.4,1.5,2.07,4,2.17,6.25.25,6.24-.32,12.51.76,18.74,1-7,.59-14.11.68-21.16,0-3,.09-6,2.27-8.41,5.94.13,8.2,2,8.57,7.9.3,4.89.06,9.81.06,16.2,6.53-6,11.9-10.83,17.23-15.74,7.46-6.89,14.74-14,22.38-20.65,8.78-7.67,17.78-7.46,26.34.43q29,26.71,57.9,53.59,34.82,32.22,69.68,64.39c4.72,4.34,8.24,9.1,8.93,15.62C597.2,366.39,596.36,370.81,592.88,374.12Z"/><path class="cls-9" d="M308,378c8.38-8.91,17.17-8.91,25.11,0,5,2.41,4.28,6.73,3.65,11a12.17,12.17,0,0,1-5.58,9.9c-2.72,1.77-.44,2.38.39,3.43,5,4.29,6.65,9.65,5.12,16-1,5.64-2.5,7.82-7.64,10.8.74.85,2,1.11,2.57,2.12,4.46,4.1,6.62,9,5.08,15.06-.16,4.35-2.22,7.73-5.41,10.52-.82.71-2.13,1.21-.75,2.58a25.91,25.91,0,0,1,5.43,7.45c1.27,2.74,1.37,5-1.45,6.81l-3.27-1.78c-1.68-.91-2.49-2.59-3.56-4-2.13-2.91-5-4.4-8.57-3.74-3.77.69-6.24,2.93-6.82,6.87a31.55,31.55,0,0,1-1.85,5.64L308,479.26c-4.43-8.21-1.7-15.11,8.55-21.07A23.46,23.46,0,0,1,308.1,452c-4.25-10.94-2.11-16.77,8.26-22.5-15.71-7.82-12.11-24.35.09-28.92C305.81,394,303.93,389,308,378Z"/><path class="cls-10" d="M314.07,185,315,184c.17-5.83,1.8-7.72,7.06-8.2,9.86-4.25,18.91-3.47,26.86,4.28,2.1,3.21,4,6.48,4.68,10.34.44,2.41.24,3.68-2.76,3.65-11.8-.13-23.61-.11-35.42,0-2.56,0-3.27-.84-2.66-3.2C313.24,188.92,313.63,187,314.07,185Z"/><path class="cls-11" d="M363,216.13c10.6-4.52,21.13.1,23.72,10.34.76,3,.47,4.59-3.35,4.45-7.45-.28-14.91-.08-22.37-.08-7.71,0-7.89-.31-4.69-7.84C356.44,217.8,357.63,216.58,363,216.13Z"/><path class="cls-12" d="M359.74,240.15c0,16.81-.23,33.63.2,50.43.15,5.95-1.75,9.9-6.8,12.6q-.09-27.36-.15-54.74C353,243.88,354.91,240.8,359.74,240.15Z"/><path class="cls-13" d="M363,216.13a20.35,20.35,0,0,0-6.69,6.87c-3-2-6.38-.73-9.58-.95-3.46-.23-7-.05-10.44-.05-6,0-6.69-1-4.32-6.45s6.43-8.82,12.34-9.61c6.36-.85,11.8,1,15.8,6.25C361.07,213.49,362,214.82,363,216.13Z"/><path class="cls-12" d="M373.75,240.14q0,20.16,0,40.31a10.43,10.43,0,0,1-.17,3c-.85,2.87-3,5.72-5.54,5.61-2.21-.1-1.13-3.64-1.14-5.62-.07-13.1,0-26.21.05-39.31C368.9,242.19,370.59,239.92,373.75,240.14Z"/><path class="cls-7" d="M386.93,240.22c0,9.32,0,18.64,0,28,0,1.64.36,3.43-.81,4.81s-2.31,3.59-4.12,3.16-1-2.86-1-4.38c-.06-9,0-18,0-27C382.62,242.78,384.1,240.63,386.93,240.22Z"/><path class="cls-14" d="M418,516.1a38.91,38.91,0,0,0-7.08-7.31c-1.16-1.84-2.12-3.75-1.89-6A79.11,79.11,0,0,1,409,488a77.31,77.31,0,0,1,0-13,93,93,0,0,1,0-14.93A79.1,79.1,0,0,1,409,447c-.56-5,.1-10,0-14.94A77.2,77.2,0,0,1,409,419a87.13,87.13,0,0,1,.14-16.15,6.5,6.5,0,0,1,1.49-4.65c2.11-1.77,4.71-1.44,7.15-1.46q28.62-.17,57.26,0c2.45,0,5-.3,7.2,1.34a6,6,0,0,1,1.64,4.61,88.66,88.66,0,0,1,.14,16.21,79.58,79.58,0,0,1,0,13.1,92,92,0,0,1,0,14.94,69.7,69.7,0,0,1-.06,13.08c-.79,5,1,9.94.06,14.91A78.26,78.26,0,0,1,484,488a95.59,95.59,0,0,1,0,15c-.28,4.33,1.87,9.05-2,12.8Z"/><path class="cls-9" d="M565.08,378.08c7.85-8.71,15.68-9,24.67-.9,4.8,10.84,2.6,17.36-8.22,23.31,6.44,2.87,10.69,7.15,10.62,14.51s-4.19,11.61-10.89,14.4c6.66,2.71,10.74,7,10.88,14.17s-3.95,11.68-10.72,14.72c6.42,2.92,10.63,7,10.73,14.18.11,7.32-3.92,11.69-10.43,14.67l6.26,3.95c4.43,5.34,5.78,11.24,2.48,17.54-3.76,7.14-10.25,8.3-17.53,7.23-8.16-1.65-11-4.71-11.67-12.73-1.44-6.87,2.37-11.35,7-15.44-.22-2.43-2.66-3.08-3.83-4.75a15.52,15.52,0,0,1-3.14-8.5c-1.65-6.86,2.11-11.33,6.75-15.38.91-2-1.15-2.44-2-3.35-2.52-2.68-4.35-5.62-4.7-9.36-1.74-6.2,1.92-10.54,5.15-15,1.75-1.27,2.34-2.41.22-4.11a12.53,12.53,0,0,1-4.92-8.27c-2.66-7.1.31-12.4,5.39-17,2.09-1.64.54-2.69-.62-3.81-2.62-2.5-4.8-5.26-5.26-9C560.39,384.65,560.26,380.51,565.08,378.08Z"/><path class="cls-7" d="M562.9,503c1,6.13,4.56,10.24,10,12.87l-91,0q0-6.48.1-13c1.66-2.08,4-2.13,6.36-2.14q34.1-.18,68.2,0C558.93,500.76,561.3,500.83,562.9,503Z"/><path class="cls-13" d="M322.05,175.78A32,32,0,0,0,315,184c-3.63-1.77-7.49-.62-11.23-.76-5.65-.22-11.33-.26-17,0-3.82.18-4.95-.79-4-4.75a20.63,20.63,0,0,1,18.75-16C311.05,161.89,318.8,166.91,322.05,175.78Z"/><path class="cls-15" d="M410.93,460.07l-.09,14.73c-1.47,2.32-3.84,2.43-6.19,2.45-19.66.15-39.32.11-59,0-3.08,0-5.84-1.18-8.63-2.28l-2.56-1.32c1.74-6.06-2.14-9.73-5.74-13.52,1.17-2.43,3.49-2.35,5.6-2.37q35.42-.32,70.82,0C407.36,457.79,409.5,458.07,410.93,460.07Z"/><path class="cls-7" d="M337,475l73.8-.2q0,6.66.05,13.32c-1.51,1.9-3.66,2.08-5.84,2.12-8.12.15-16.24.08-24.36,0-3.07,0-5.81-1.2-8.6-2.22-8.07-3.68-16.25-5.37-24.74-1.35-2.35,1.11-2.81-.65-3.39-2.24A22,22,0,0,0,337,475Z"/><path class="cls-8" d="M372.09,488.06l38.8.06q0,7.33-.05,14.68a4.48,4.48,0,0,1-4.77,1.85c-5.76-1-11.51-.5-17.25.32-2.23.32-4.32,0-5.72-2.09A33,33,0,0,0,372.09,488.06Z"/><path class="cls-8" d="M310.42,476.62c-1.14-5-.84-9.63,3.58-13a10.68,10.68,0,0,1,17.22,8.27C323.55,470.21,316.51,471.3,310.42,476.62Z"/><path class="cls-16" d="M383.1,502.88l27.75-.08q0,3,.08,6c-8.94-5.2-17.64-4.73-26.63,1.62C383.85,507.61,383.48,505.25,383.1,502.88Z"/><path class="cls-8" d="M527.93,364.94q-59.71.07-119.44.13c-13.5,0-27-.06-40.48-.1a2.49,2.49,0,0,1,.61-3.05,3.51,3.51,0,0,1,3.13-.94c15.05-.58,30.12-.11,45.18-.48-11.44-.28-22.88-.08-34.32-.26-2.55,0-5.46.55-7.12-2.39.93-6,6-10.28,12.58-10.33,11.49-.07,23,0,34.46,0h84.91c7.06.35,14,5.95,14.72,11.85-2.67,1.65-2.67,1.65-12.79,1.65,5.64.06,11.3-.32,16.9.74C527.55,362.44,528.44,363.33,527.93,364.94Z"/><path class="cls-8" d="M494.76,333.86,402,334c-1.34-5.14,3.94-5.57,5.91-8.35a3.58,3.58,0,0,1,1.52-.21c8.92-.71,17.86-.24,25.4-.39-4.57,0-10.53,0-16.49,0-1.79,0-3.69.39-5.19-1.11-1.63-3.95,2.23-3.44,3.86-4.74h61.84c7.19,1.42,10.9,7.37,15.57,12A2,2,0,0,1,494.76,333.86Z"/><path class="cls-17" d="M409,301c2.55-3.86,6.4-6.27,10-9,6.87-1.11,13.8-.17,20.69-.51,2.44-.12,4.94.54,7.33-.46,7.82,0,15.66.22,23.48-.09a13.4,13.4,0,0,1,10.42,3.71c3.46,3.33,6.85,6.73,11.48,11.29H463.88c-3.19-1.87-7.73-2.46-7.37-7.73,1.48-2.86,4.19-2.11,6.58-2.19,2.09-.07,4.18,0,5.13,0-4.63.42-10.39-.52-16.17-.07a20.46,20.46,0,0,0-8,0c-5.24-.72-10.47.64-15.86-.1,3.8,1,8.14-1.7,11.2,2.28.47,5.33-4.13,5.91-7.33,7.79l-23.1,0C407.38,304.29,407.94,302.63,409,301Z"/><path class="cls-17" d="M509,347.93c-37.38,0-74.76.41-112.12-.19-9.47-.15-15.85,2.91-20.94,10.2a2.44,2.44,0,0,1-.8,1.1c-2.35.83-5.78,0-6.07,4l-1,2H341.23l-.63-1.19c5.91-5.39,11.76-10.86,17.82-16.08.94-.81,2.87-.62,4.34-.62q73.1,0,146.21,0Q510,347.5,509,347.93Z"/><path class="cls-17" d="M494.76,333.86l-15.87-14.72q12.5,0,25-.12c2.07,0,4,.23,5.44,1.93,3.7,4.49,7.34,9,10.48,12.91Z"/><path class="cls-17" d="M509,347.93v-.87c7.77,0,15.54.16,23.3-.08,3.8-.12,6.77.93,9.1,3.89,2.47,3.13,6.43,4.69,8.62,8.11-1,2-2.86,2.15-4.7,2.18-7.29.12-14.62.78-21.83-1a3.4,3.4,0,0,1-1.52-1.18C517.29,355.71,514.4,350.33,509,347.93Z"/><path class="cls-18" d="M335,390c.29-4.15.19-8.25-1.92-12H534.47c2.84,0,5.67.06,8.5.09a1.5,1.5,0,0,1-.36,1.76c-2,1.72-4.39,1.41-6.66,1.41-40.61.1-81.23.45-121.83-.15-15.63-.24-31.26-.39-46.89-.6-2,0-4,.17-6,.29-8.2.49-14.17,5.11-19.81,10.42C339,392.41,336.8,392.27,335,390Z"/><path class="cls-17" d="M408,327,402,334H375c3.85-4.28,7.72-8.69,11.74-13,1.55-1.64,3.75-2,6-2q12.19.09,24.38.12L413,323a2.66,2.66,0,0,1-.93,1.09c-5.54,1.55-11.23.66-16.23,1C399.38,326.13,404.27,322.81,408,327Z"/><path class="cls-8" d="M432.07,305.92A30.45,30.45,0,0,1,439,299c.31-1.32.62-2.64,2.31-2.84,4.46-.22,8.93-.21,13.39,0,1.7.2,2,1.53,2.33,2.85a29.9,29.9,0,0,1,6.89,6.95Z"/><path class="cls-18" d="M461.64,277.75H434.69c3.16-5.43,8.43-7.92,12.2-11.9.8-.85,1.88-.37,2.69.32C453.56,269.59,457.86,272.68,461.64,277.75Z"/><path class="cls-18" d="M543,379v-.86h22.11a19.42,19.42,0,0,0-1.82,11.78c-1.73,3.08-4.63,2.1-7.25,2.09-4.38-2.56-7.83-6.31-11.78-9.43A3.79,3.79,0,0,1,543,379Z"/><path class="cls-19" d="M522.77,359.16,550,359l5.12,4.6-.27,1.36H527.93L526,363C524.73,361.88,522.09,361.91,522.77,359.16Z"/><path class="cls-17" d="M447,291c-4.77,2.05-9.77.67-14.66.93-4.44.24-8.91,0-13.36,0,4.77-2,9.77-.65,14.65-.92C438,290.84,442.5,291,447,291Z"/><path class="cls-17" d="M409,301v5H404.8C405.5,303.24,407.3,302.17,409,301Z"/><path class="cls-20" d="M376.47,289.94c-.59-.52-1.21-.85-1.48-1.37-.81-1.54.34-2.5,1.3-3.39,5.68-5.34,11.36-10.69,17.11-16q9.18-8.4,18.5-16.63c1.38-1.22,2.85-3.72,4.91-1.62,1.9,1.95-.59,3.27-1.78,4.37q-17.91,16.54-36,32.94A17.19,17.19,0,0,1,376.47,289.94Z"/><path class="cls-20" d="M537.74,314.7c-.44.67-.67,1.38-1.15,1.68-1.42.88-2.53,0-3.54-.9q-4.83-4.31-9.62-8.66-12.49-11.42-25-22.87a24.07,24.07,0,0,1-2.71-2.91c-.76-1-1.11-2.17-.12-3.16s2.17-.3,3.06.47c2.87,2.51,5.74,5,8.55,7.61q13.93,12.8,27.82,25.65A35.64,35.64,0,0,1,537.74,314.7Z"/><path class="cls-20" d="M514.86,282.09c-.19.29-.4,1-.88,1.31-1,.63-1.91,0-2.69-.65-2.15-1.84-4.33-3.64-6.41-5.56-10-9.24-20.07-18.49-30-27.82-1.18-1.09-3.71-2.39-1.76-4.35,1.7-1.7,3.39.27,4.67,1.43q17.39,15.76,34.67,31.61C513.53,279.07,514.7,280.07,514.86,282.09Z"/><path class="cls-20" d="M309.39,363a6.53,6.53,0,0,1-1.65-1.16c-.7-1-.14-1.92.59-2.66,2.22-2.24,4.41-4.53,6.75-6.65q14.76-13.41,29.61-26.71c1.22-1.09,2.46-3.59,4.43-1.62s-.18,3.36-1.46,4.54Q329.87,345.11,312,361.37A17.65,17.65,0,0,1,309.39,363Z"/><path class="cls-7" d="M410.75,418.72l.18,13.35c-1.36,1.58-3.12,1.56-5,1.53-16.67-.21-33.33,0-50-.12-5.34,0-10.59,1.09-16,.9-3.56-.13-7-.54-10.11-2.29l-5.64-2.71a17.42,17.42,0,0,0,10.71-10.5c1.7-2,4-2.13,6.4-2.14q31.74-.17,63.48,0C407,416.76,409.16,416.87,410.75,418.72Z"/><path class="cls-7" d="M410.92,460.07l-82.18.09-4.63-1.78c5.76-2.29,9.36-5.94,10.91-11.43,1.63-2.13,4-2.19,6.34-2.21q31.72-.18,63.44,0c2.18,0,4.36.12,5.95,2Z"/><path class="cls-15" d="M410.75,418.72l-75.84.16c.85-6-.48-11.34-5.09-15.58,1.05-2.54,3.39-2.49,5.5-2.5,23.59-.14,47.19-.41,70.79.2,2,.05,3.58.57,4.67,2.3Z"/><path class="cls-15" d="M410.75,446.71,335,447a17,17,0,0,0-5.17-14.86l81.08,0Z"/><path class="cls-7" d="M410.78,403.3h-81l-5.57-2.93c5.39-1.83,8.65-5.53,10.75-10.36l6,0a15.25,15.25,0,0,1,8.06-2.28c13.82,0,27.64-.13,41.46.06,2,0,4,0,5.73,1.29A6.53,6.53,0,0,1,398.1,392c1,3.43,3.41,4.61,6.74,4.8,2.23.13,4.83-.39,6.14,2.31Z"/><path class="cls-21" d="M331.23,385.8a10.68,10.68,0,1,1-10.85-10.63A10.8,10.8,0,0,1,331.23,385.8Z"/><path class="cls-21" d="M320.4,454.09a10.48,10.48,0,0,1-10.5-11,10.36,10.36,0,0,1,10.61-10.33,10.66,10.66,0,1,1-.11,21.31Z"/><path class="cls-21" d="M320.31,404a10.41,10.41,0,0,1,10.91,10.52,10.67,10.67,0,0,1-21.33.55A10.57,10.57,0,0,1,320.31,404Z"/><path class="cls-9" d="M411,399.06c-2.33-.08-4.65-.16-7-.22-5.81-.15-7.53-1.86-7.8-7.8-.27-3.87,1.84-5.31,5.4-5.52,28-1.66,56.09-.55,84.14-.77,4.78,0,7.38,2.29,8.61,6.65,1.15,4.13-1.28,6.67-4.28,8.57a6.07,6.07,0,0,1-8.11-.9Z"/><path class="cls-7" d="M563.61,419.07c1.51,5.14,5.38,8.05,10.22,10.39l-5.62,2.71c-2.7,1.59-5.68,1.61-8.68,1.54-17.62-.4-35.26-.43-52.87.06-6.14.17-12.27.65-18.43.49-2.35-.06-4.69-.17-6.29-2.31q.1-6.58.19-13.18c2.05-2.31,4.76-2,7.42-1.86q29.86,1.41,59.73,0C554.12,416.65,559.31,415.29,563.61,419.07Z"/><path class="cls-7" d="M563.1,446.81a16.83,16.83,0,0,0,11.13,11.53L570,460c-7.09,3.44-14.73,2.65-22.11,2.16-20.13-1.33-40.27-.31-60.4-.68-2,0-4,.26-5.52-1.56l.19-13.18c1.44-1.66,3.37-2,5.41-2q35.07-.24,70.14,0A7.36,7.36,0,0,1,563.1,446.81Z"/><path class="cls-7" d="M563,475c1.45,5.08,4.15,9,9.13,11.45,3.21,1.61-.33,1.29-.9,1.8A36.11,36.11,0,0,1,559,489.74c-19.42-.13-38.86-1-58.27.43a120.22,120.22,0,0,1-13.95,0A6.07,6.07,0,0,1,482,488q0-6.57.05-13.15c1.66-2.08,4-2.13,6.36-2.14q34.13-.18,68.25,0C559,472.76,561.34,472.86,563,475Z"/><path class="cls-22" d="M563.61,419.07l-70-.24c-3.84,0-7.67,0-11.5-.06a91.64,91.64,0,0,1,0-15.54c1.23-1.93,3.11-2.2,5.21-2.25,25.29-.66,50.58-.25,75.88-.19,2.11,0,4.43-.09,5.67,2.29C564,407.36,561.93,412.61,563.61,419.07Z"/><path class="cls-7" d="M568.88,403.08l-86.77.15-.15-4.16c9.1-.67,9.68-1.05,10.84-7.1-.56-3,1.47-3.71,3.76-4a63,63,0,0,1,8.47-.28q20,0,39.92,0c3.55,0,7,.35,10,2.35l8.27-.15a17.66,17.66,0,0,0,10.58,10.5Z"/><path class="cls-8" d="M482,488l89.21.18c-5.38,3.46-8.37,8.26-8.3,14.78L482,502.88Q482,495.46,482,488Z"/><path class="cls-8" d="M563,475,482,474.88q0-7.47-.1-14.93l88,.08C565,463.78,562.57,468.7,563,475Z"/><path class="cls-15" d="M563.1,446.81l-81,0q-.09-7.41-.19-14.82l86.27.22C564.42,436.32,562.32,441.07,563.1,446.81Z"/><path class="cls-21" d="M588.55,443.8A10.77,10.77,0,1,1,567,444a10.86,10.86,0,0,1,10.7-10.87A10.6,10.6,0,0,1,588.55,443.8Z"/><path class="cls-21" d="M588.57,415a10.78,10.78,0,1,1-10.67-10.86A10.7,10.7,0,0,1,588.57,415Z"/><path class="cls-21" d="M577.92,375.17a10.82,10.82,0,0,1-.24,21.64,10.82,10.82,0,0,1,.24-21.64Z"/><path class="cls-21" d="M577.62,483.12A10.52,10.52,0,0,1,567,472.37a10.77,10.77,0,0,1,11-10.48,10.62,10.62,0,1,1-.35,21.23Z"/><path class="cls-21" d="M577.94,512.11a10.62,10.62,0,1,1,0-21.23,10.62,10.62,0,1,1,0,21.23Z"/><path class="cls-23" d="M364.49,466.94c-7.47,0-14.95,0-22.42,0-2.05,0-5.06.45-5.06-2.51,0-2.53,2.82-2.31,4.76-2.32q23.18,0,46.34,0c1.95,0,4.76-.24,4.81,2.28.05,3-3,2.53-5,2.55C380.11,467,372.3,466.94,364.49,466.94Z"/><path class="cls-23" d="M375,358.06c.3,0,.59-.07.88-.12l40.45.12a39.54,39.54,0,0,1,4.49.1c1.62.19,3.72.36,3.65,2.54s-2.19,2.2-3.83,2.21q-23.48,0-46.94,0a10.32,10.32,0,0,1-2.81-.86C370.11,358.42,373.41,359.12,375,358.06Z"/><path class="cls-24" d="M464.93,350c7.82,0,15.65-.05,23.47,0,1.5,0,3.86-.68,4,1.67s-2.07,2.25-3.7,2.26q-24.21,0-48.42,0c-1.45,0-3.48.16-3.55-1.81-.09-2.4,2.14-2.11,3.71-2.12C448.63,349.94,456.78,350,464.93,350Z"/><path class="cls-24" d="M522.77,359.16,526,363c-7,0-13.92.05-20.88,0-1.43,0-3.39.11-3.43-1.92s1.92-2,3.35-2c5.63-.08,11.27-.05,16.9-.06C522.22,359.08,522.49,359.12,522.77,359.16Z"/><path class="cls-25" d="M375,358.06,370.92,362,369,363C366.86,356.33,372.22,358.73,375,358.06Z"/><path class="cls-26" d="M412.14,323.14A4.68,4.68,0,0,0,413,323c8.78,0,17.55,0,26.33,0,1.56,0,3.84-.36,3.89,1.93s-2.26,2-3.8,2c-10.1.05-20.2,0-30.3,0C408.05,324.06,410.64,324,412.14,323.14Z"/><path class="cls-27" d="M412.14,323.14c-1,1.28-2,2.55-3.05,3.83L408,327c-5.5,0-11,0-16.49,0-1.56,0-3.93.49-4-1.81-.1-2.78,2.51-2.11,4.17-2.12C398.48,323,405.31,323.09,412.14,323.14Z"/><path class="cls-28" d="M457,299l-1.92-2c-1.86-.18-3.78-.29-3-3.05,5.46,0,10.94-.25,16.38.15,2.95.22,8.36-2,8.32,2,0,3.57-5.53,1.34-8.57,1.83C464.49,298.55,460.58,297,457,299Z"/><path class="cls-28" d="M441,297l-2,2c-4.27-2-8.8-.54-13.19-1-1.74-.18-4.24.26-4.18-2.28.06-2.34,2.48-1.65,4-1.67,6.12-.09,12.25,0,18.37,0C444.48,296.5,443.15,297.18,441,297Z"/><path class="cls-29" d="M441,297q1.49-1.53,3-3a8.94,8.94,0,0,1,8.12,0l3,3.05A21.72,21.72,0,0,1,441,297Z"/><path class="cls-15" d="M555,390c-18.83,0-37.66,0-56.49.1-2,0-4.48-.81-5.7,1.86-1.28-3.85-3.91-5.19-8-5.17q-40.45.18-80.91,0c-3.53,0-6.14,1-7.71,4.23-1.94-1.39-4.17-.93-6.29-.94Q365.45,390,341,390c5.75-7.44,12.48-11.33,22.73-11.24,59.75.49,119.51.22,179.26.2C547.38,382.2,551.72,385.53,555,390Z"/><path class="cls-24" d="M368.56,406c8,0,16,0,24,0,1.39,0,3.41-.32,3.43,1.85s-1.85,2.09-3.35,2.09q-24.51,0-49,0c-1.64,0-3.8.08-3.67-2.26.1-2,2.18-1.68,3.59-1.69C351.89,405.94,360.22,406,368.56,406Z"/><path class="cls-30" d="M378.68,438c-8.15,0-16.29,0-24.43,0-1.49,0-3.82.6-3.73-2,.07-1.9,2-2,3.5-2q24.44,0,48.85,0c1.49,0,3.44.07,3.48,2,.06,2.53-2.25,1.94-3.75,2C394.63,438.07,386.65,438,378.68,438Z"/><path class="cls-23" d="M519.15,415.93c-7.8,0-15.61,0-23.41,0-1.78,0-4.2.22-4.32-2.22-.15-2.92,2.51-2.59,4.41-2.6q23.42-.07,46.83,0c1.91,0,4.73-.15,4.68,2.43s-2.84,2.35-4.77,2.37C534.77,416,527,415.93,519.15,415.93Z"/><path class="cls-24" d="M532.16,491c8,0,16,0,24,0,1.53,0,3.86-.48,3.78,2-.08,2.26-2.33,2-3.94,2q-24,0-48,0c-1.61,0-3.92.3-4-1.89-.1-2.86,2.57-2,4.17-2C516.17,490.9,524.17,491,532.16,491Z"/><path class="cls-26" d="M513.67,466c-8,0-16,0-24,0-1.57,0-3.87.39-4-1.88s2.2-2.08,3.77-2.08q24-.06,47.94,0c1.62,0,3.93-.15,3.94,2,0,2.8-2.63,1.93-4.24,1.95C529.32,466.09,521.5,466,513.67,466Z"/><path class="cls-23" d="M534,433.07c7.65,0,15.3,0,22.95,0,1.92,0,4.64-.35,4.62,2.43s-2.74,2.39-4.65,2.39q-23.19.07-46.39,0c-1.88,0-4.74.35-4.71-2.32,0-2.43,2.72-2.49,4.74-2.5C518.34,433.05,526.16,433.07,534,433.07Z"/><path class="cls-23" d="M380.19,380.07c7.65,0,15.3-.05,22.95,0,1.91,0,4.57-.29,4.39,2.64-.15,2.45-2.59,2.18-4.36,2.18q-23.46.06-46.9,0c-1.75,0-4.34.24-4.47-2-.16-2.63,2.46-2.74,4.44-2.75C364.22,380,372.21,380.07,380.19,380.07Z"/></svg>